<svg width="992" height="97" viewBox="0 0 992 97" fill="none" xmlns="http://www.w3.org/2000/svg">
<path opacity="0.5" fill-rule="evenodd" clip-rule="evenodd" d="M33 37C14.7746 37 0 51.7746 0 70C0.00361971 69.5 0 53.2493 0 53.2493C6.11185 41.2324 18.5945 33 33 33H99.5C100.605 33 101.5 33.8954 101.5 35C101.5 36.1046 100.605 37 99.5 37H33ZM545 35C545 33.8954 545.896 33 547 33H959C973.415 33 985.891 41.3473 992 53.4247C992 53.4247 992 138.895 992 70.2203C992 51.9786 977.209 37 959 37H547C545.896 37 545 36.1046 545 35Z" fill="url(#paint0_linear_812_1462)"/>
<g opacity="0.8">
<path d="M141.112 46.912C137.944 46.912 135.224 46.352 132.952 45.232C130.68 44.112 128.824 42.656 127.384 40.864C125.976 39.072 124.936 37.12 124.264 35.008C123.592 32.896 123.256 30.864 123.256 28.912V27.856C123.256 25.68 123.592 23.536 124.264 21.424C124.968 19.312 126.04 17.392 127.48 15.664C128.92 13.936 130.744 12.56 132.952 11.536C135.192 10.48 137.832 9.952 140.872 9.952C144.04 9.952 146.792 10.528 149.128 11.68C151.496 12.8 153.384 14.4 154.792 16.48C156.2 18.528 157.048 20.928 157.336 23.68H150.472C150.216 22.08 149.64 20.736 148.744 19.648C147.88 18.528 146.776 17.696 145.432 17.152C144.088 16.576 142.568 16.288 140.872 16.288C139.144 16.288 137.608 16.592 136.264 17.2C134.92 17.776 133.8 18.608 132.904 19.696C132.008 20.784 131.32 22.064 130.84 23.536C130.392 25.008 130.168 26.64 130.168 28.432C130.168 30.16 130.392 31.76 130.84 33.232C131.32 34.704 132.024 36 132.952 37.12C133.88 38.208 135.016 39.056 136.36 39.664C137.736 40.272 139.32 40.576 141.112 40.576C143.736 40.576 145.944 39.936 147.736 38.656C149.56 37.344 150.664 35.52 151.048 33.184H157.912C157.592 35.68 156.744 37.968 155.368 40.048C153.992 42.128 152.104 43.792 149.704 45.04C147.304 46.288 144.44 46.912 141.112 46.912ZM175.664 46.912C173.36 46.912 171.328 46.544 169.568 45.808C167.808 45.072 166.32 44.08 165.104 42.832C163.888 41.552 162.96 40.112 162.32 38.512C161.712 36.912 161.408 35.248 161.408 33.52V32.512C161.408 30.72 161.728 29.024 162.368 27.424C163.04 25.792 163.984 24.352 165.2 23.104C166.448 21.824 167.952 20.832 169.712 20.128C171.472 19.392 173.456 19.024 175.664 19.024C177.872 19.024 179.856 19.392 181.616 20.128C183.376 20.832 184.864 21.824 186.08 23.104C187.328 24.352 188.272 25.792 188.912 27.424C189.552 29.024 189.872 30.72 189.872 32.512V33.52C189.872 35.248 189.552 36.912 188.912 38.512C188.304 40.112 187.392 41.552 186.176 42.832C184.96 44.08 183.472 45.072 181.712 45.808C179.952 46.544 177.936 46.912 175.664 46.912ZM175.664 41.2C177.296 41.2 178.672 40.848 179.792 40.144C180.912 39.408 181.76 38.432 182.336 37.216C182.912 35.968 183.2 34.56 183.2 32.992C183.2 31.392 182.896 29.984 182.288 28.768C181.712 27.52 180.848 26.544 179.696 25.84C178.576 25.104 177.232 24.736 175.664 24.736C174.096 24.736 172.736 25.104 171.584 25.84C170.464 26.544 169.6 27.52 168.992 28.768C168.384 29.984 168.08 31.392 168.08 32.992C168.08 34.56 168.368 35.968 168.944 37.216C169.552 38.432 170.416 39.408 171.536 40.144C172.656 40.848 174.032 41.2 175.664 41.2ZM196.05 46V10.96H202.722V46H196.05ZM192.786 15.952V10.96H202.722V15.952H192.786ZM210.675 46V10.96H217.347V46H210.675ZM207.411 15.952V10.96H217.347V15.952H207.411ZM236.628 46.912C234.388 46.912 232.42 46.528 230.724 45.76C229.06 44.992 227.668 43.968 226.548 42.688C225.46 41.376 224.628 39.92 224.052 38.32C223.508 36.72 223.236 35.088 223.236 33.424V32.512C223.236 30.784 223.508 29.12 224.052 27.52C224.628 25.888 225.46 24.448 226.548 23.2C227.668 21.92 229.044 20.912 230.676 20.176C232.308 19.408 234.196 19.024 236.34 19.024C239.156 19.024 241.508 19.648 243.396 20.896C245.316 22.112 246.756 23.728 247.716 25.744C248.676 27.728 249.156 29.872 249.156 32.176V34.576H226.068V30.496H244.98L242.916 32.512C242.916 30.848 242.676 29.424 242.196 28.24C241.716 27.056 240.98 26.144 239.988 25.504C239.028 24.864 237.812 24.544 236.34 24.544C234.868 24.544 233.62 24.88 232.596 25.552C231.572 26.224 230.788 27.2 230.244 28.48C229.732 29.728 229.476 31.232 229.476 32.992C229.476 34.624 229.732 36.08 230.244 37.36C230.756 38.608 231.54 39.6 232.596 40.336C233.652 41.04 234.996 41.392 236.628 41.392C238.26 41.392 239.588 41.072 240.612 40.432C241.636 39.76 242.292 38.944 242.58 37.984H248.724C248.34 39.776 247.604 41.344 246.516 42.688C245.428 44.032 244.036 45.072 242.34 45.808C240.676 46.544 238.772 46.912 236.628 46.912ZM266.298 46.912C264.026 46.912 262.058 46.528 260.394 45.76C258.762 44.992 257.386 43.968 256.266 42.688C255.178 41.408 254.362 39.968 253.818 38.368C253.274 36.768 253.002 35.136 253.002 33.472V32.56C253.002 30.8 253.274 29.12 253.818 27.52C254.394 25.888 255.242 24.448 256.362 23.2C257.482 21.92 258.858 20.912 260.49 20.176C262.154 19.408 264.074 19.024 266.25 19.024C268.522 19.024 270.554 19.472 272.346 20.368C274.138 21.232 275.562 22.448 276.618 24.016C277.706 25.584 278.314 27.408 278.442 29.488H271.962C271.802 28.144 271.226 27.024 270.234 26.128C269.274 25.232 267.946 24.784 266.25 24.784C264.778 24.784 263.546 25.136 262.554 25.84C261.594 26.544 260.874 27.52 260.394 28.768C259.914 29.984 259.674 31.392 259.674 32.992C259.674 34.528 259.898 35.92 260.346 37.168C260.826 38.416 261.546 39.392 262.506 40.096C263.498 40.8 264.762 41.152 266.298 41.152C267.45 41.152 268.442 40.944 269.274 40.528C270.106 40.112 270.762 39.536 271.242 38.8C271.754 38.064 272.074 37.232 272.202 36.304H278.682C278.554 38.416 277.93 40.272 276.81 41.872C275.722 43.44 274.266 44.672 272.442 45.568C270.65 46.464 268.602 46.912 266.298 46.912ZM295.354 46.336C292.954 46.336 290.97 46.032 289.402 45.424C287.866 44.784 286.714 43.728 285.946 42.256C285.178 40.752 284.794 38.736 284.794 36.208L284.842 12.592H291.082L291.034 36.64C291.034 37.92 291.37 38.912 292.042 39.616C292.746 40.288 293.738 40.624 295.018 40.624H299.098V46.336H295.354ZM280.666 24.832V19.936H299.098V24.832H280.666ZM305.946 46V19.936H312.618V46H305.946ZM302.298 24.928V19.936H312.618V24.928H302.298ZM308.394 16.816C307.082 16.816 306.106 16.48 305.466 15.808C304.858 15.104 304.554 14.24 304.554 13.216C304.554 12.128 304.858 11.248 305.466 10.576C306.106 9.904 307.082 9.568 308.394 9.568C309.706 9.568 310.666 9.904 311.274 10.576C311.882 11.248 312.186 12.128 312.186 13.216C312.186 14.24 311.882 15.104 311.274 15.808C310.666 16.48 309.706 16.816 308.394 16.816ZM332.836 46.912C330.532 46.912 328.5 46.544 326.74 45.808C324.98 45.072 323.492 44.08 322.276 42.832C321.06 41.552 320.132 40.112 319.492 38.512C318.884 36.912 318.58 35.248 318.58 33.52V32.512C318.58 30.72 318.9 29.024 319.54 27.424C320.212 25.792 321.156 24.352 322.372 23.104C323.62 21.824 325.124 20.832 326.884 20.128C328.644 19.392 330.628 19.024 332.836 19.024C335.044 19.024 337.028 19.392 338.788 20.128C340.548 20.832 342.036 21.824 343.252 23.104C344.5 24.352 345.444 25.792 346.084 27.424C346.724 29.024 347.044 30.72 347.044 32.512V33.52C347.044 35.248 346.724 36.912 346.084 38.512C345.476 40.112 344.564 41.552 343.348 42.832C342.132 44.08 340.644 45.072 338.884 45.808C337.124 46.544 335.108 46.912 332.836 46.912ZM332.836 41.2C334.468 41.2 335.844 40.848 336.964 40.144C338.084 39.408 338.932 38.432 339.508 37.216C340.084 35.968 340.372 34.56 340.372 32.992C340.372 31.392 340.068 29.984 339.46 28.768C338.884 27.52 338.02 26.544 336.868 25.84C335.748 25.104 334.404 24.736 332.836 24.736C331.268 24.736 329.908 25.104 328.756 25.84C327.636 26.544 326.772 27.52 326.164 28.768C325.556 29.984 325.252 31.392 325.252 32.992C325.252 34.56 325.54 35.968 326.116 37.216C326.724 38.432 327.588 39.408 328.708 40.144C329.828 40.848 331.204 41.2 332.836 41.2ZM352.886 46V19.936H358.166V31.12H357.686C357.686 28.464 358.038 26.256 358.742 24.496C359.446 22.704 360.486 21.36 361.862 20.464C363.27 19.568 365.014 19.12 367.094 19.12H367.382C370.486 19.12 372.838 20.128 374.438 22.144C376.038 24.128 376.838 27.104 376.838 31.072V46H370.166V30.496C370.166 28.896 369.702 27.6 368.774 26.608C367.878 25.616 366.63 25.12 365.03 25.12C363.398 25.12 362.07 25.632 361.046 26.656C360.054 27.648 359.558 28.992 359.558 30.688V46H352.886Z" fill="white"/>
<path d="M394.994 46V10.96H401.81V46H394.994ZM421.354 46.336C418.954 46.336 416.97 46.032 415.402 45.424C413.866 44.784 412.714 43.728 411.946 42.256C411.178 40.752 410.794 38.736 410.794 36.208L410.842 12.592H417.082L417.034 36.64C417.034 37.92 417.37 38.912 418.042 39.616C418.746 40.288 419.738 40.624 421.018 40.624H425.098V46.336H421.354ZM406.666 24.832V19.936H425.098V24.832H406.666ZM442.222 46.912C439.982 46.912 438.014 46.528 436.318 45.76C434.654 44.992 433.262 43.968 432.142 42.688C431.054 41.376 430.222 39.92 429.646 38.32C429.102 36.72 428.83 35.088 428.83 33.424V32.512C428.83 30.784 429.102 29.12 429.646 27.52C430.222 25.888 431.054 24.448 432.142 23.2C433.262 21.92 434.638 20.912 436.27 20.176C437.902 19.408 439.79 19.024 441.934 19.024C444.75 19.024 447.102 19.648 448.99 20.896C450.91 22.112 452.35 23.728 453.31 25.744C454.27 27.728 454.75 29.872 454.75 32.176V34.576H431.662V30.496H450.574L448.51 32.512C448.51 30.848 448.27 29.424 447.79 28.24C447.31 27.056 446.574 26.144 445.582 25.504C444.622 24.864 443.406 24.544 441.934 24.544C440.462 24.544 439.214 24.88 438.19 25.552C437.166 26.224 436.382 27.2 435.838 28.48C435.326 29.728 435.07 31.232 435.07 32.992C435.07 34.624 435.326 36.08 435.838 37.36C436.35 38.608 437.134 39.6 438.19 40.336C439.246 41.04 440.59 41.392 442.222 41.392C443.854 41.392 445.182 41.072 446.206 40.432C447.23 39.76 447.886 38.944 448.174 37.984H454.318C453.934 39.776 453.198 41.344 452.11 42.688C451.022 44.032 449.63 45.072 447.934 45.808C446.27 46.544 444.366 46.912 442.222 46.912ZM460.323 46V19.936H465.603V31.12H465.123C465.123 28.496 465.459 26.304 466.131 24.544C466.803 22.752 467.795 21.408 469.107 20.512C470.451 19.584 472.115 19.12 474.099 19.12H474.387C476.403 19.12 478.067 19.584 479.379 20.512C480.723 21.408 481.715 22.752 482.355 24.544C483.027 26.304 483.363 28.496 483.363 31.12H481.683C481.683 28.496 482.019 26.304 482.691 24.544C483.395 22.752 484.403 21.408 485.715 20.512C487.059 19.584 488.723 19.12 490.707 19.12H490.995C493.011 19.12 494.691 19.584 496.035 20.512C497.379 21.408 498.387 22.752 499.059 24.544C499.763 26.304 500.115 28.496 500.115 31.12V46H493.443V30.496C493.443 28.864 493.027 27.568 492.195 26.608C491.363 25.616 490.179 25.12 488.643 25.12C487.107 25.12 485.875 25.632 484.947 26.656C484.019 27.648 483.555 28.992 483.555 30.688V46H476.883V30.496C476.883 28.864 476.467 27.568 475.635 26.608C474.803 25.616 473.619 25.12 472.083 25.12C470.547 25.12 469.315 25.632 468.387 26.656C467.459 27.648 466.995 28.992 466.995 30.688V46H460.323ZM516.701 46.816C513.117 46.816 510.301 46.064 508.253 44.56C506.237 43.024 505.181 40.912 505.085 38.224H511.085C511.181 39.12 511.677 39.936 512.573 40.672C513.469 41.408 514.877 41.776 516.797 41.776C518.397 41.776 519.661 41.488 520.589 40.912C521.549 40.336 522.029 39.552 522.029 38.56C522.029 37.696 521.661 37.008 520.925 36.496C520.221 35.984 519.005 35.648 517.277 35.488L514.973 35.248C512.061 34.928 509.821 34.096 508.253 32.752C506.685 31.408 505.901 29.616 505.901 27.376C505.901 25.584 506.349 24.08 507.245 22.864C508.141 21.648 509.373 20.736 510.941 20.128C512.541 19.488 514.365 19.168 516.413 19.168C519.613 19.168 522.205 19.872 524.189 21.28C526.173 22.688 527.213 24.752 527.309 27.472H521.309C521.245 26.576 520.797 25.808 519.965 25.168C519.133 24.528 517.933 24.208 516.365 24.208C514.957 24.208 513.869 24.48 513.101 25.024C512.333 25.568 511.949 26.272 511.949 27.136C511.949 27.968 512.253 28.608 512.861 29.056C513.501 29.504 514.525 29.808 515.933 29.968L518.237 30.208C521.309 30.528 523.709 31.376 525.437 32.752C527.197 34.128 528.077 35.984 528.077 38.32C528.077 40.048 527.597 41.552 526.637 42.832C525.709 44.08 524.397 45.056 522.701 45.76C521.005 46.464 519.005 46.816 516.701 46.816Z" fill="url(#paint1_linear_812_1462)"/>
</g>
<defs>
<linearGradient id="paint0_linear_812_1462" x1="1103.67" y1="23.121" x2="826.038" y2="526.931" gradientUnits="userSpaceOnUse">
<stop stop-color="#83F0FF"/>
<stop offset="1" stop-color="#F81DFB"/>
</linearGradient>
<linearGradient id="paint1_linear_812_1462" x1="548" y1="-2.73247e-05" x2="435.331" y2="102.804" gradientUnits="userSpaceOnUse">
<stop stop-color="#8F33E7"/>
<stop offset="1" stop-color="#F81DFB"/>
</linearGradient>
</defs>
</svg>
