<svg width="61" height="61" viewBox="0 0 61 61" fill="none" xmlns="http://www.w3.org/2000/svg">
<circle cx="30.4208" cy="30.4209" r="24.5" transform="rotate(-16.4008 30.4208 30.4209)" fill="url(#paint0_linear_439_155)"/>
<path d="M30.4209 11.9209C20.2089 11.9209 11.9209 20.2089 11.9209 30.4209C11.9209 40.6329 20.2089 48.9209 30.4209 48.9209C40.6329 48.9209 48.9209 40.6329 48.9209 30.4209C48.9209 20.2089 40.6329 11.9209 30.4209 11.9209ZM30.4209 17.4709C33.4919 17.4709 35.9709 19.9499 35.9709 23.0209C35.9709 26.0919 33.4919 28.5709 30.4209 28.5709C27.3499 28.5709 24.8709 26.0919 24.8709 23.0209C24.8709 19.9499 27.3499 17.4709 30.4209 17.4709ZM30.4209 43.7409C25.7959 43.7409 21.7074 41.3729 19.3209 37.7839C19.3764 34.1024 26.7209 32.0859 30.4209 32.0859C34.1024 32.0859 41.4654 34.1024 41.5209 37.7839C39.1344 41.3729 35.0459 43.7409 30.4209 43.7409Z" fill="white"/>
<defs>
<linearGradient id="paint0_linear_439_155" x1="60.4365" y1="-1.65184" x2="2.35698" y2="5.13982" gradientUnits="userSpaceOnUse">
<stop stop-color="#83F0FF"/>
<stop offset="1" stop-color="#F81DFB"/>
</linearGradient>
</defs>
</svg>
