<svg width="1279" height="2834" viewBox="0 0 1279 2834" fill="none" xmlns="http://www.w3.org/2000/svg">
<mask id="mask0_1068_3494" style="mask-type:alpha" maskUnits="userSpaceOnUse" x="0" y="0" width="1281" height="2847">
<rect width="1281" height="2847" fill="#D9D9D9"/>
</mask>
<g mask="url(#mask0_1068_3494)">
<rect y="2263" width="1280" height="571" fill="#181818"/>
<g filter="url(#filter0_f_1068_3494)">
<ellipse cx="-264.5" cy="3397.5" rx="672.5" ry="637.5" fill="#FF05E6" fill-opacity="0.25"/>
</g>
<g filter="url(#filter1_f_1068_3494)">
<ellipse cx="1647.5" cy="1387.5" rx="672.5" ry="637.5" fill="#FF05E6" fill-opacity="0.25"/>
</g>
<path d="M477.191 2444V2403.12H487.607V2444H477.191ZM451.207 2444V2403.12H461.623V2444H451.207ZM459.831 2427.93V2418.86H478.983V2427.93H459.831ZM510.839 2445.12C508.114 2445.12 505.687 2444.71 503.559 2443.89C501.431 2443.07 499.62 2441.93 498.127 2440.47C496.671 2439.02 495.551 2437.34 494.767 2435.43C494.02 2433.53 493.647 2431.49 493.647 2429.33V2427.98C493.647 2425.74 494.039 2423.65 494.823 2421.71C495.644 2419.77 496.802 2418.07 498.295 2416.62C499.788 2415.16 501.599 2414.02 503.727 2413.2C505.855 2412.38 508.226 2411.97 510.839 2411.97C513.49 2411.97 515.86 2412.38 517.951 2413.2C520.079 2414.02 521.89 2415.16 523.383 2416.62C524.876 2418.07 526.015 2419.77 526.799 2421.71C527.62 2423.65 528.031 2425.74 528.031 2427.98V2429.33C528.031 2431.49 527.639 2433.53 526.855 2435.43C526.109 2437.34 524.988 2439.02 523.495 2440.47C522.039 2441.93 520.247 2443.07 518.119 2443.89C515.991 2444.71 513.564 2445.12 510.839 2445.12ZM510.839 2436.61C512.407 2436.61 513.695 2436.27 514.703 2435.6C515.748 2434.93 516.532 2433.99 517.055 2432.8C517.578 2431.57 517.839 2430.19 517.839 2428.66C517.839 2427.05 517.559 2425.65 516.999 2424.46C516.476 2423.22 515.692 2422.25 514.647 2421.54C513.602 2420.83 512.332 2420.48 510.839 2420.48C509.346 2420.48 508.076 2420.83 507.031 2421.54C505.986 2422.25 505.183 2423.22 504.623 2424.46C504.1 2425.65 503.839 2427.05 503.839 2428.66C503.839 2430.19 504.1 2431.57 504.623 2432.8C505.146 2433.99 505.93 2434.93 506.975 2435.6C508.02 2436.27 509.308 2436.61 510.839 2436.61ZM544.941 2444L550.429 2414.1H561.069L567.341 2444H559.613L553.117 2414.32H557.821L551.885 2444H544.941ZM543.037 2444L542.981 2435.49H549.141L549.197 2444H543.037ZM538.053 2444L529.933 2413.09H539.901L547.405 2444H538.053ZM562.357 2444L562.413 2435.49H568.573L568.517 2444H562.357ZM564.821 2444L571.597 2413.09H580.893L573.501 2444H564.821ZM598.723 2444V2413.09H608.915V2444H598.723ZM594.803 2420.48V2413.09H608.915V2420.48H594.803ZM602.923 2410.62C601.057 2410.62 599.675 2410.16 598.779 2409.22C597.921 2408.25 597.491 2407.02 597.491 2405.53C597.491 2404.03 597.921 2402.82 598.779 2401.89C599.675 2400.92 601.038 2400.43 602.867 2400.43C604.734 2400.43 606.097 2400.92 606.955 2401.89C607.814 2402.82 608.243 2404.03 608.243 2405.53C608.243 2407.02 607.814 2408.25 606.955 2409.22C606.097 2410.16 604.753 2410.62 602.923 2410.62ZM631.136 2444.45C627.776 2444.45 625.088 2444.04 623.072 2443.22C621.093 2442.39 619.656 2441.03 618.76 2439.13C617.864 2437.22 617.416 2434.65 617.416 2431.4L617.472 2405.02H626.88L626.824 2431.68C626.824 2433.06 627.179 2434.13 627.888 2434.87C628.635 2435.58 629.699 2435.94 631.08 2435.94H635.336V2444.45H631.136ZM612.936 2420.48V2413.09H635.336V2420.48H612.936ZM664.324 2444L669.812 2414.1H680.452L686.724 2444H678.996L672.5 2414.32H677.204L671.268 2444H664.324ZM662.42 2444L662.364 2435.49H668.524L668.58 2444H662.42ZM657.436 2444L649.316 2413.09H659.284L666.788 2444H657.436ZM681.74 2444L681.796 2435.49H687.956L687.9 2444H681.74ZM684.204 2444L690.98 2413.09H700.276L692.884 2444H684.204ZM719.855 2445.12C717.129 2445.12 714.703 2444.71 712.575 2443.89C710.447 2443.07 708.636 2441.93 707.143 2440.47C705.687 2439.02 704.567 2437.34 703.783 2435.43C703.036 2433.53 702.663 2431.49 702.663 2429.33V2427.98C702.663 2425.74 703.055 2423.65 703.839 2421.71C704.66 2419.77 705.817 2418.07 707.311 2416.62C708.804 2415.16 710.615 2414.02 712.743 2413.2C714.871 2412.38 717.241 2411.97 719.855 2411.97C722.505 2411.97 724.876 2412.38 726.967 2413.2C729.095 2414.02 730.905 2415.16 732.399 2416.62C733.892 2418.07 735.031 2419.77 735.815 2421.71C736.636 2423.65 737.047 2425.74 737.047 2427.98V2429.33C737.047 2431.49 736.655 2433.53 735.871 2435.43C735.124 2437.34 734.004 2439.02 732.511 2440.47C731.055 2441.93 729.263 2443.07 727.135 2443.89C725.007 2444.71 722.58 2445.12 719.855 2445.12ZM719.855 2436.61C721.423 2436.61 722.711 2436.27 723.719 2435.6C724.764 2434.93 725.548 2433.99 726.071 2432.8C726.593 2431.57 726.855 2430.19 726.855 2428.66C726.855 2427.05 726.575 2425.65 726.015 2424.46C725.492 2423.22 724.708 2422.25 723.663 2421.54C722.617 2420.83 721.348 2420.48 719.855 2420.48C718.361 2420.48 717.092 2420.83 716.047 2421.54C715.001 2422.25 714.199 2423.22 713.639 2424.46C713.116 2425.65 712.855 2427.05 712.855 2428.66C712.855 2430.19 713.116 2431.57 713.639 2432.8C714.161 2433.99 714.945 2434.93 715.991 2435.6C717.036 2436.27 718.324 2436.61 719.855 2436.61ZM742.627 2444V2413.09H750.691V2426.53H750.579C750.579 2422.2 751.475 2418.8 753.267 2416.34C755.096 2413.87 757.709 2412.64 761.107 2412.64H762.339V2421.38H759.987C757.709 2421.38 755.936 2421.99 754.667 2423.22C753.435 2424.46 752.819 2426.23 752.819 2428.54V2444H742.627ZM788.313 2444L779.185 2429.55H775.041L787.137 2413.09H797.777L786.297 2428.6V2423.67L799.681 2444H788.313ZM766.361 2444V2403.12H776.553V2444H766.361ZM814.664 2445.01C810.184 2445.01 806.656 2444.09 804.08 2442.26C801.504 2440.4 800.123 2437.78 799.936 2434.42H808.896C809.045 2435.36 809.624 2436.16 810.632 2436.83C811.64 2437.5 813.059 2437.84 814.888 2437.84C816.195 2437.84 817.315 2437.65 818.248 2437.28C819.219 2436.87 819.704 2436.22 819.704 2435.32C819.704 2434.54 819.331 2433.9 818.584 2433.42C817.837 2432.89 816.475 2432.54 814.496 2432.35L812.368 2432.13C808.411 2431.72 805.499 2430.63 803.632 2428.88C801.765 2427.13 800.832 2424.92 800.832 2422.27C800.832 2419.99 801.392 2418.13 802.512 2416.67C803.632 2415.18 805.181 2414.06 807.16 2413.31C809.139 2412.57 811.397 2412.19 813.936 2412.19C818.08 2412.19 821.421 2413.11 823.96 2414.94C826.499 2416.73 827.843 2419.32 827.992 2422.72H819.032C818.883 2421.79 818.379 2421 817.52 2420.37C816.661 2419.7 815.429 2419.36 813.824 2419.36C812.667 2419.36 811.715 2419.57 810.968 2419.98C810.259 2420.39 809.904 2420.97 809.904 2421.71C809.904 2422.5 810.24 2423.07 810.912 2423.45C811.621 2423.82 812.741 2424.1 814.272 2424.29L816.4 2424.51C820.357 2424.92 823.4 2426.02 825.528 2427.82C827.693 2429.57 828.776 2431.89 828.776 2434.76C828.776 2436.89 828.197 2438.72 827.04 2440.25C825.92 2441.78 824.296 2442.95 822.168 2443.78C820.077 2444.6 817.576 2445.01 814.664 2445.01Z" fill="white"/>
<g filter="url(#filter2_b_1068_3494)">
<circle cx="173" cy="2563.97" r="42.2073" fill="url(#paint0_linear_1068_3494)"/>
</g>
<path d="M187.866 2560.78H186.804V2554.41C186.804 2554.13 186.692 2553.86 186.493 2553.66C186.294 2553.46 186.024 2553.35 185.742 2553.35H160.258C160.007 2553.35 159.762 2553.27 159.568 2553.11C159.373 2552.95 159.242 2552.73 159.197 2552.48V2552.1C159.242 2551.85 159.373 2551.63 159.568 2551.47C159.762 2551.31 160.007 2551.22 160.258 2551.23H185.296C185.578 2551.23 185.848 2551.11 186.047 2550.91C186.246 2550.72 186.358 2550.44 186.358 2550.16C186.358 2549.88 186.246 2549.61 186.047 2549.41C185.848 2549.21 185.578 2549.1 185.296 2549.1H160.258C159.414 2549.1 158.603 2549.44 158.006 2550.03C157.409 2550.63 157.073 2551.44 157.073 2552.29C157.066 2552.41 157.066 2552.54 157.073 2552.67V2574.51C157.077 2575.08 157.194 2575.65 157.417 2576.17C157.639 2576.7 157.963 2577.18 158.371 2577.58C158.778 2577.98 159.26 2578.3 159.79 2578.51C160.32 2578.73 160.887 2578.84 161.458 2578.83H185.742C186.024 2578.83 186.294 2578.72 186.493 2578.52C186.692 2578.32 186.804 2578.05 186.804 2577.77V2571.4H187.866C188.147 2571.4 188.417 2571.29 188.617 2571.09C188.816 2570.89 188.928 2570.62 188.928 2570.34V2561.84C188.928 2561.56 188.816 2561.29 188.617 2561.09C188.417 2560.89 188.147 2560.78 187.866 2560.78ZM184.68 2576.71H161.458C160.868 2576.71 160.299 2576.49 159.875 2576.08C159.452 2575.66 159.208 2575.1 159.197 2574.51V2555.35C159.541 2555.44 159.9 2555.49 160.258 2555.47H184.68V2560.78H177.248C175.839 2560.78 174.489 2561.34 173.493 2562.34C172.498 2563.33 171.938 2564.68 171.938 2566.09C171.938 2567.5 172.498 2568.85 173.493 2569.84C174.489 2570.84 175.839 2571.4 177.248 2571.4H184.68V2576.71ZM186.804 2569.28H177.248C176.403 2569.28 175.592 2568.94 174.995 2568.34C174.398 2567.75 174.062 2566.94 174.062 2566.09C174.062 2565.25 174.398 2564.44 174.995 2563.84C175.592 2563.24 176.403 2562.91 177.248 2562.91H186.804V2569.28Z" fill="#F81DFB"/>
<path d="M178.32 2567.68C179.199 2567.68 179.913 2566.97 179.913 2566.09C179.913 2565.21 179.199 2564.5 178.32 2564.5C177.44 2564.5 176.727 2565.21 176.727 2566.09C176.727 2566.97 177.44 2567.68 178.32 2567.68Z" fill="#908294"/>
<path d="M92.1468 2647.4V2646.61H98.0335C98.8999 2646.61 99.3331 2646.18 99.3331 2645.31V2643.77C99.3331 2643.04 99.0082 2642.61 98.3584 2642.48L94.2492 2641.64C92.8476 2641.36 92.1468 2640.43 92.1468 2638.83V2637.8C92.1468 2635.85 93.1215 2634.88 95.071 2634.88H99.6963L100.556 2635.55V2636.33H95.0519C94.1855 2636.33 93.7522 2636.76 93.7522 2637.63V2638.93C93.7522 2639.66 94.0771 2640.08 94.727 2640.21L98.8362 2641.03C100.238 2641.31 100.939 2642.26 100.939 2643.86V2645.14C100.939 2647.09 99.9639 2648.07 98.0144 2648.07H93.0068L92.1468 2647.4ZM103.463 2645.2V2640.99C103.463 2639.08 104.419 2638.13 106.33 2638.13H108.815C110.726 2638.13 111.681 2639.08 111.681 2640.99V2643.69H104.992V2645.39C104.992 2646.28 105.438 2646.73 106.33 2646.73H111.299V2647.49L110.535 2648.07H106.33C104.419 2648.07 103.463 2647.11 103.463 2645.2ZM104.992 2642.45H110.152V2640.8C110.152 2639.91 109.706 2639.46 108.815 2639.46H106.33C105.438 2639.46 104.992 2639.91 104.992 2640.8V2642.45ZM114.514 2645.2V2634.88H116.043V2638.13H119.675V2639.46H116.043V2645.39C116.043 2646.28 116.489 2646.73 117.381 2646.73H119.866V2647.49L119.101 2648.07H117.381C115.47 2648.07 114.514 2647.11 114.514 2645.2ZM126.743 2645.14V2634.88H128.349V2645.31C128.349 2646.18 128.782 2646.61 129.648 2646.61H133.777C134.643 2646.61 135.076 2646.18 135.076 2645.31V2634.88H136.682V2645.14C136.682 2647.09 135.707 2648.07 133.758 2648.07H129.668C127.718 2648.07 126.743 2647.09 126.743 2645.14ZM139.826 2651.89V2638.13H145.177C147.088 2638.13 148.044 2639.08 148.044 2640.99V2645.2C148.044 2647.11 147.088 2648.07 145.177 2648.07H141.355V2651.89H139.826ZM141.355 2646.73H145.177C146.069 2646.73 146.515 2646.28 146.515 2645.39V2640.8C146.515 2639.91 146.069 2639.46 145.177 2639.46H141.355V2646.73ZM154.395 2635.22L154.605 2634.88H155.962L159.555 2641.55L163.148 2634.88H164.505L164.715 2635.22L160.358 2643.17V2648.07H158.752V2643.17L154.395 2635.22ZM165.71 2645.2V2640.99C165.71 2639.08 166.666 2638.13 168.577 2638.13H171.253C173.164 2638.13 174.12 2639.08 174.12 2640.99V2645.2C174.12 2647.11 173.164 2648.07 171.253 2648.07H168.577C166.666 2648.07 165.71 2647.11 165.71 2645.2ZM167.239 2645.39C167.239 2646.28 167.685 2646.73 168.577 2646.73H171.253C172.145 2646.73 172.591 2646.28 172.591 2645.39V2640.8C172.591 2639.91 172.145 2639.46 171.253 2639.46H168.577C167.685 2639.46 167.239 2639.91 167.239 2640.8V2645.39ZM176.948 2645.2V2638.13H178.477V2645.39C178.477 2646.28 178.923 2646.73 179.815 2646.73H183.637V2638.13H185.166V2648.07H179.815C177.904 2648.07 176.948 2647.11 176.948 2645.2ZM188.147 2648.07V2639.27C188.593 2638.51 189.421 2638.13 190.632 2638.13H192.543L193.307 2638.7V2639.46H190.842C190.307 2639.46 189.918 2639.61 189.676 2639.9V2648.07H188.147ZM198.97 2635.22L199.219 2634.88H200.5L203.252 2646.61H203.5L206.386 2636.33H207.992L210.859 2646.61H211.126L213.878 2634.88H215.159L215.407 2635.22L212.369 2648.07H209.712L207.189 2638.93L204.666 2648.07H202.009L198.97 2635.22ZM219.281 2648.07C217.357 2648.07 216.395 2647.1 216.395 2645.18C216.395 2643.26 217.357 2642.29 219.281 2642.29H222.778V2640.8C222.778 2639.91 222.332 2639.46 221.44 2639.46H217.35V2638.7L218.115 2638.13H221.44C223.352 2638.13 224.307 2639.08 224.307 2640.99V2648.07H219.281ZM217.924 2645.39C217.924 2646.28 218.37 2646.73 219.261 2646.73H222.778V2643.54H219.261C218.37 2643.54 217.924 2643.98 217.924 2644.87V2645.39ZM227.212 2645.35V2633.92H228.741V2645.5C228.741 2646.38 229.187 2646.85 230.079 2646.9V2648.22C228.168 2648.22 227.212 2647.26 227.212 2645.35ZM232.177 2645.35V2633.92H233.706V2645.5C233.706 2646.38 234.152 2646.85 235.044 2646.9V2648.22C233.133 2648.22 232.177 2647.26 232.177 2645.35ZM237.065 2645.2V2640.99C237.065 2639.08 238.021 2638.13 239.932 2638.13H242.417C244.328 2638.13 245.284 2639.08 245.284 2640.99V2643.69H238.594V2645.39C238.594 2646.28 239.04 2646.73 239.932 2646.73H244.902V2647.49L244.137 2648.07H239.932C238.021 2648.07 237.065 2647.11 237.065 2645.2ZM238.594 2642.45H243.755V2640.8C243.755 2639.91 243.309 2639.46 242.417 2639.46H239.932C239.04 2639.46 238.594 2639.91 238.594 2640.8V2642.45ZM248.117 2645.2V2634.88H249.646V2638.13H253.277V2639.46H249.646V2645.39C249.646 2646.28 250.092 2646.73 250.984 2646.73H253.468V2647.49L252.704 2648.07H250.984C249.072 2648.07 248.117 2647.11 248.117 2645.2Z" fill="white"/>
<path d="M266.945 2587.12C266.505 2587.12 266.149 2587.47 266.149 2587.91C266.149 2588.35 266.505 2588.71 266.945 2588.71L266.945 2587.12ZM403.739 2587.91L399.142 2583.31L394.544 2587.91L399.142 2592.51L403.739 2587.91ZM271.667 2588.71C272.106 2588.71 272.463 2588.35 272.463 2587.91C272.463 2587.47 272.106 2587.12 271.667 2587.12L271.667 2588.71ZM281.109 2587.12C280.669 2587.12 280.313 2587.47 280.313 2587.91C280.313 2588.35 280.669 2588.71 281.109 2588.71L281.109 2587.12ZM290.552 2588.71C290.992 2588.71 291.348 2588.35 291.348 2587.91C291.348 2587.47 290.992 2587.12 290.552 2587.12L290.552 2588.71ZM299.994 2587.12C299.555 2587.12 299.198 2587.47 299.198 2587.91C299.198 2588.35 299.555 2588.71 299.994 2588.71L299.994 2587.12ZM309.437 2588.71C309.877 2588.71 310.233 2588.35 310.233 2587.91C310.233 2587.47 309.877 2587.12 309.437 2587.12L309.437 2588.71ZM318.88 2587.12C318.44 2587.12 318.083 2587.47 318.083 2587.91C318.083 2588.35 318.44 2588.71 318.88 2588.71L318.88 2587.12ZM328.322 2588.71C328.762 2588.71 329.119 2588.35 329.119 2587.91C329.119 2587.47 328.762 2587.12 328.322 2587.12L328.322 2588.71ZM337.765 2587.12C337.325 2587.12 336.968 2587.47 336.968 2587.91C336.968 2588.35 337.325 2588.71 337.765 2588.71L337.765 2587.12ZM347.207 2588.71C347.647 2588.71 348.004 2588.35 348.004 2587.91C348.004 2587.47 347.647 2587.12 347.207 2587.12L347.207 2588.71ZM356.65 2587.12C356.21 2587.12 355.854 2587.47 355.854 2587.91C355.854 2588.35 356.21 2588.71 356.65 2588.71L356.65 2587.12ZM366.093 2588.71C366.532 2588.71 366.889 2588.35 366.889 2587.91C366.889 2587.47 366.532 2587.12 366.093 2587.12L366.093 2588.71ZM375.535 2587.12C375.095 2587.12 374.739 2587.47 374.739 2587.91C374.739 2588.35 375.095 2588.71 375.535 2588.71L375.535 2587.12ZM384.978 2588.71C385.418 2588.71 385.774 2588.35 385.774 2587.91C385.774 2587.47 385.418 2587.12 384.978 2587.12L384.978 2588.71ZM394.42 2587.12C393.981 2587.12 393.624 2587.47 393.624 2587.91C393.624 2588.35 393.981 2588.71 394.42 2588.71L394.42 2587.12ZM266.945 2588.71L271.667 2588.71L271.667 2587.12L266.945 2587.12L266.945 2588.71ZM281.109 2588.71L290.552 2588.71L290.552 2587.12L281.109 2587.12L281.109 2588.71ZM299.994 2588.71L309.437 2588.71L309.437 2587.12L299.994 2587.12L299.994 2588.71ZM318.88 2588.71L328.322 2588.71L328.322 2587.12L318.88 2587.12L318.88 2588.71ZM337.765 2588.71L347.207 2588.71L347.207 2587.12L337.765 2587.12L337.765 2588.71ZM356.65 2588.71L366.093 2588.71L366.093 2587.12L356.65 2587.12L356.65 2588.71ZM375.535 2588.71L384.978 2588.71L384.978 2587.12L375.535 2587.12L375.535 2588.71ZM394.42 2588.71L399.142 2588.71L399.142 2587.12L394.42 2587.12L394.42 2588.71Z" fill="white"/>
<g filter="url(#filter3_b_1068_3494)">
<circle cx="504.142" cy="2563.97" r="42.2073" fill="url(#paint1_linear_1068_3494)"/>
</g>
<g clip-path="url(#clip0_1068_3494)">
<path d="M491.002 2553.22C490.685 2553.22 490.381 2553.09 490.157 2552.87C489.933 2552.64 489.807 2552.34 489.807 2552.02C489.807 2551.71 489.933 2551.4 490.157 2551.18C490.381 2550.95 490.685 2550.83 491.002 2550.83H517.282C517.599 2550.83 517.903 2550.95 518.127 2551.18C518.351 2551.4 518.477 2551.71 518.477 2552.02C518.477 2552.34 518.351 2552.64 518.127 2552.87C517.903 2553.09 517.599 2553.22 517.282 2553.22H491.002ZM495.78 2548.44C495.463 2548.44 495.16 2548.31 494.936 2548.09C494.712 2547.86 494.586 2547.56 494.586 2547.24C494.586 2546.93 494.712 2546.62 494.936 2546.4C495.16 2546.18 495.463 2546.05 495.78 2546.05H512.504C512.821 2546.05 513.124 2546.18 513.349 2546.4C513.573 2546.62 513.698 2546.93 513.698 2547.24C513.698 2547.56 513.573 2547.86 513.349 2548.09C513.124 2548.31 512.821 2548.44 512.504 2548.44H495.78ZM485.029 2575.91C485.029 2576.86 485.407 2577.77 486.079 2578.45C486.751 2579.12 487.662 2579.5 488.613 2579.5H519.671C520.622 2579.5 521.533 2579.12 522.205 2578.45C522.877 2577.77 523.255 2576.86 523.255 2575.91V2559.19C523.255 2558.24 522.877 2557.33 522.205 2556.66C521.533 2555.98 520.622 2555.61 519.671 2555.61H488.613C487.662 2555.61 486.751 2555.98 486.079 2556.66C485.407 2557.33 485.029 2558.24 485.029 2559.19V2575.91ZM488.613 2577.11C488.296 2577.11 487.992 2576.98 487.768 2576.76C487.544 2576.53 487.418 2576.23 487.418 2575.91V2559.19C487.418 2558.87 487.544 2558.57 487.768 2558.34C487.992 2558.12 488.296 2557.99 488.613 2557.99H519.671C519.988 2557.99 520.292 2558.12 520.516 2558.34C520.74 2558.57 520.866 2558.87 520.866 2559.19V2575.91C520.866 2576.23 520.74 2576.53 520.516 2576.76C520.292 2576.98 519.988 2577.11 519.671 2577.11H488.613Z" fill="#F81DFB"/>
</g>
<path d="M411.584 2644.59C411.342 2645.4 410.96 2646.08 410.437 2646.63C409.915 2647.18 409.297 2647.59 408.583 2647.86C407.87 2648.12 407.086 2648.26 406.232 2648.26C404.984 2648.26 403.901 2648 402.983 2647.47C402.079 2646.95 401.378 2646.21 400.881 2645.24C400.397 2644.27 400.155 2643.11 400.155 2641.76C400.155 2640.41 400.397 2639.25 400.881 2638.28C401.378 2637.31 402.079 2636.57 402.983 2636.04C403.901 2635.52 404.971 2635.26 406.194 2635.26C407.061 2635.26 407.844 2635.38 408.545 2635.62C409.246 2635.85 409.838 2636.21 410.323 2636.69C410.819 2637.18 411.183 2637.79 411.412 2638.53L409.023 2639.54C408.806 2638.78 408.475 2638.24 408.029 2637.92C407.583 2637.59 407.01 2637.42 406.309 2637.42C405.621 2637.42 405.016 2637.59 404.493 2637.92C403.983 2638.25 403.588 2638.74 403.308 2639.39C403.028 2640.03 402.888 2640.82 402.888 2641.76C402.888 2642.69 403.015 2643.48 403.27 2644.13C403.538 2644.78 403.926 2645.27 404.436 2645.6C404.946 2645.93 405.57 2646.1 406.309 2646.1C406.997 2646.1 407.589 2645.91 408.086 2645.54C408.596 2645.17 408.953 2644.61 409.157 2643.86L411.584 2644.59ZM413.564 2648.07V2638.51H415.839L416.011 2640.38C416.266 2639.72 416.635 2639.21 417.119 2638.85C417.616 2638.5 418.234 2638.32 418.973 2638.32C419.19 2638.32 419.387 2638.34 419.566 2638.38C419.744 2638.41 419.891 2638.46 420.005 2638.53L419.7 2640.73C419.572 2640.68 419.413 2640.64 419.222 2640.61C419.043 2640.59 418.808 2640.57 418.515 2640.57C418.132 2640.57 417.763 2640.67 417.406 2640.86C417.049 2641.04 416.756 2641.32 416.527 2641.7C416.298 2642.07 416.183 2642.54 416.183 2643.12V2648.07H413.564ZM425.875 2648.26C424.868 2648.26 423.989 2648.06 423.238 2647.66C422.498 2647.27 421.925 2646.7 421.517 2645.96C421.11 2645.22 420.906 2644.33 420.906 2643.29C420.906 2642.24 421.11 2641.35 421.517 2640.61C421.925 2639.87 422.492 2639.31 423.218 2638.91C423.957 2638.52 424.798 2638.32 425.741 2638.32C426.71 2638.32 427.532 2638.52 428.207 2638.91C428.882 2639.29 429.398 2639.82 429.755 2640.5C430.112 2641.16 430.29 2641.92 430.29 2642.77C430.29 2643.03 430.284 2643.27 430.271 2643.5C430.258 2643.73 430.239 2643.93 430.214 2644.11H422.588V2642.29H429.067L427.805 2642.75C427.805 2641.95 427.621 2641.33 427.251 2640.9C426.894 2640.46 426.385 2640.25 425.722 2640.25C425.238 2640.25 424.818 2640.36 424.461 2640.59C424.117 2640.82 423.856 2641.17 423.677 2641.62C423.499 2642.07 423.41 2642.64 423.41 2643.33C423.41 2644 423.505 2644.56 423.696 2645.01C423.9 2645.44 424.18 2645.77 424.537 2645.98C424.907 2646.2 425.346 2646.31 425.856 2646.31C426.417 2646.31 426.869 2646.2 427.213 2645.98C427.557 2645.77 427.825 2645.47 428.016 2645.08L430.099 2645.89C429.895 2646.38 429.583 2646.81 429.162 2647.17C428.755 2647.52 428.264 2647.8 427.691 2647.99C427.13 2648.17 426.525 2648.26 425.875 2648.26ZM437.956 2641.97C437.956 2641.42 437.797 2640.99 437.478 2640.69C437.173 2640.38 436.765 2640.23 436.255 2640.23C435.784 2640.23 435.37 2640.35 435.013 2640.59C434.656 2640.83 434.395 2641.24 434.229 2641.8L431.993 2641.11C432.21 2640.27 432.681 2639.59 433.407 2639.08C434.146 2638.57 435.134 2638.32 436.37 2638.32C437.211 2638.32 437.944 2638.45 438.568 2638.72C439.192 2638.97 439.676 2639.36 440.02 2639.89C440.377 2640.41 440.556 2641.06 440.556 2641.85V2645.73C440.556 2646.22 440.785 2646.46 441.244 2646.46C441.46 2646.46 441.664 2646.43 441.855 2646.36L441.702 2647.99C441.371 2648.15 440.957 2648.24 440.46 2648.24C440.014 2648.24 439.613 2648.16 439.256 2648.01C438.899 2647.86 438.619 2647.63 438.415 2647.32C438.211 2647 438.109 2646.61 438.109 2646.14V2646.06L438.568 2645.98C438.491 2646.47 438.281 2646.88 437.937 2647.22C437.593 2647.56 437.173 2647.81 436.676 2647.99C436.192 2648.17 435.688 2648.26 435.166 2648.26C434.516 2648.26 433.955 2648.16 433.484 2647.97C433.012 2647.77 432.649 2647.47 432.394 2647.09C432.14 2646.71 432.012 2646.24 432.012 2645.68C432.012 2644.96 432.242 2644.38 432.7 2643.94C433.159 2643.48 433.815 2643.17 434.669 2643L438.262 2642.27L438.243 2643.9L435.949 2644.36C435.516 2644.45 435.185 2644.57 434.956 2644.72C434.739 2644.86 434.631 2645.1 434.631 2645.43C434.631 2645.75 434.745 2645.99 434.975 2646.15C435.217 2646.32 435.503 2646.4 435.835 2646.4C436.102 2646.4 436.364 2646.37 436.618 2646.31C436.873 2646.24 437.103 2646.14 437.306 2646C437.51 2645.86 437.67 2645.67 437.784 2645.43C437.899 2645.19 437.956 2644.89 437.956 2644.55V2641.97ZM446.494 2635.58V2644.95C446.494 2645.41 446.608 2645.75 446.838 2645.96C447.08 2646.17 447.405 2646.27 447.812 2646.27C448.131 2646.27 448.411 2646.22 448.653 2646.14C448.896 2646.03 449.112 2645.9 449.303 2645.73L449.724 2647.47C449.418 2647.72 449.036 2647.91 448.577 2648.05C448.118 2648.19 447.634 2648.26 447.124 2648.26C446.487 2648.26 445.92 2648.16 445.423 2647.97C444.939 2647.78 444.557 2647.47 444.277 2647.05C444.009 2646.63 443.875 2646.07 443.875 2645.37V2636.31L446.494 2635.58ZM449.552 2638.51V2640.46H442.117V2638.51H449.552ZM455.757 2648.26C454.751 2648.26 453.872 2648.06 453.12 2647.66C452.381 2647.27 451.807 2646.7 451.4 2645.96C450.992 2645.22 450.788 2644.33 450.788 2643.29C450.788 2642.24 450.992 2641.35 451.4 2640.61C451.807 2639.87 452.374 2639.31 453.101 2638.91C453.84 2638.52 454.681 2638.32 455.624 2638.32C456.592 2638.32 457.414 2638.52 458.089 2638.91C458.764 2639.29 459.28 2639.82 459.637 2640.5C459.994 2641.16 460.172 2641.92 460.172 2642.77C460.172 2643.03 460.166 2643.27 460.153 2643.5C460.141 2643.73 460.121 2643.93 460.096 2644.11H452.47V2642.29H458.949L457.688 2642.75C457.688 2641.95 457.503 2641.33 457.133 2640.9C456.777 2640.46 456.267 2640.25 455.604 2640.25C455.12 2640.25 454.7 2640.36 454.343 2640.59C453.999 2640.82 453.738 2641.17 453.559 2641.62C453.381 2642.07 453.292 2642.64 453.292 2643.33C453.292 2644 453.387 2644.56 453.579 2645.01C453.782 2645.44 454.063 2645.77 454.419 2645.98C454.789 2646.2 455.229 2646.31 455.738 2646.31C456.299 2646.31 456.751 2646.2 457.095 2645.98C457.439 2645.77 457.707 2645.47 457.898 2645.08L459.981 2645.89C459.777 2646.38 459.465 2646.81 459.045 2647.17C458.637 2647.52 458.146 2647.8 457.573 2647.99C457.012 2648.17 456.407 2648.26 455.757 2648.26ZM477.996 2635.45L473.524 2643.34V2648.07H470.886V2643.34L466.414 2635.45H469.223L471.249 2639.24L472.205 2641.2L473.18 2639.24L475.206 2635.45H477.996ZM482.092 2638.32C483.06 2638.32 483.907 2638.52 484.634 2638.91C485.373 2639.31 485.946 2639.87 486.354 2640.61C486.774 2641.35 486.984 2642.24 486.984 2643.29C486.984 2644.32 486.774 2645.21 486.354 2645.96C485.946 2646.7 485.373 2647.27 484.634 2647.66C483.907 2648.06 483.06 2648.26 482.092 2648.26C481.136 2648.26 480.289 2648.06 479.55 2647.66C478.811 2647.27 478.231 2646.7 477.81 2645.96C477.403 2645.21 477.199 2644.32 477.199 2643.29C477.199 2642.24 477.403 2641.35 477.81 2640.61C478.231 2639.87 478.811 2639.31 479.55 2638.91C480.289 2638.52 481.136 2638.32 482.092 2638.32ZM482.092 2640.27C481.607 2640.27 481.193 2640.38 480.849 2640.61C480.518 2640.83 480.263 2641.16 480.085 2641.61C479.906 2642.05 479.817 2642.61 479.817 2643.29C479.817 2643.96 479.906 2644.52 480.085 2644.97C480.263 2645.42 480.518 2645.75 480.849 2645.98C481.193 2646.2 481.607 2646.31 482.092 2646.31C482.563 2646.31 482.964 2646.2 483.296 2645.98C483.64 2645.75 483.901 2645.42 484.079 2644.97C484.258 2644.52 484.347 2643.96 484.347 2643.29C484.347 2642.61 484.258 2642.05 484.079 2641.61C483.901 2641.16 483.64 2640.83 483.296 2640.61C482.964 2640.38 482.563 2640.27 482.092 2640.27ZM492.501 2648.26C491.864 2648.26 491.291 2648.14 490.781 2647.91C490.271 2647.68 489.863 2647.32 489.558 2646.82C489.265 2646.31 489.118 2645.66 489.118 2644.85V2638.51H491.737V2644.22C491.737 2644.96 491.889 2645.48 492.195 2645.77C492.501 2646.05 492.941 2646.19 493.514 2646.19C493.782 2646.19 494.043 2646.15 494.298 2646.06C494.552 2645.96 494.775 2645.8 494.967 2645.6C495.17 2645.4 495.33 2645.13 495.444 2644.82C495.559 2644.48 495.616 2644.1 495.616 2643.65V2638.51H498.235V2648.07H495.903L495.808 2646.4C495.489 2647.04 495.049 2647.51 494.489 2647.82C493.941 2648.11 493.278 2648.26 492.501 2648.26ZM500.99 2648.07V2638.51H503.265L503.437 2640.38C503.691 2639.72 504.061 2639.21 504.545 2638.85C505.042 2638.5 505.66 2638.32 506.399 2638.32C506.616 2638.32 506.813 2638.34 506.992 2638.38C507.17 2638.41 507.317 2638.46 507.431 2638.53L507.125 2640.73C506.998 2640.68 506.839 2640.64 506.648 2640.61C506.469 2640.59 506.233 2640.57 505.94 2640.57C505.558 2640.57 505.189 2640.67 504.832 2640.86C504.475 2641.04 504.182 2641.32 503.953 2641.7C503.723 2642.07 503.609 2642.54 503.609 2643.12V2648.07H500.99ZM525.607 2644.59C525.365 2645.4 524.983 2646.08 524.46 2646.63C523.938 2647.18 523.32 2647.59 522.606 2647.86C521.893 2648.12 521.109 2648.26 520.256 2648.26C519.007 2648.26 517.924 2648 517.006 2647.47C516.102 2646.95 515.401 2646.21 514.904 2645.24C514.42 2644.27 514.178 2643.11 514.178 2641.76C514.178 2640.41 514.42 2639.25 514.904 2638.28C515.401 2637.31 516.102 2636.57 517.006 2636.04C517.924 2635.52 518.994 2635.26 520.217 2635.26C521.084 2635.26 521.867 2635.38 522.568 2635.62C523.269 2635.85 523.861 2636.21 524.346 2636.69C524.843 2637.18 525.206 2637.79 525.435 2638.53L523.046 2639.54C522.829 2638.78 522.498 2638.24 522.052 2637.92C521.606 2637.59 521.033 2637.42 520.332 2637.42C519.644 2637.42 519.039 2637.59 518.516 2637.92C518.007 2638.25 517.612 2638.74 517.331 2639.39C517.051 2640.03 516.911 2640.82 516.911 2641.76C516.911 2642.69 517.038 2643.48 517.293 2644.13C517.561 2644.78 517.949 2645.27 518.459 2645.6C518.969 2645.93 519.593 2646.1 520.332 2646.1C521.02 2646.1 521.613 2645.91 522.109 2645.54C522.619 2645.17 522.976 2644.61 523.18 2643.86L525.607 2644.59ZM531.945 2638.32C532.914 2638.32 533.761 2638.52 534.487 2638.91C535.226 2639.31 535.8 2639.87 536.207 2640.61C536.628 2641.35 536.838 2642.24 536.838 2643.29C536.838 2644.32 536.628 2645.21 536.207 2645.96C535.8 2646.7 535.226 2647.27 534.487 2647.66C533.761 2648.06 532.914 2648.26 531.945 2648.26C530.99 2648.26 530.142 2648.06 529.403 2647.66C528.664 2647.27 528.084 2646.7 527.664 2645.96C527.256 2645.21 527.052 2644.32 527.052 2643.29C527.052 2642.24 527.256 2641.35 527.664 2640.61C528.084 2639.87 528.664 2639.31 529.403 2638.91C530.142 2638.52 530.99 2638.32 531.945 2638.32ZM531.945 2640.27C531.461 2640.27 531.047 2640.38 530.703 2640.61C530.372 2640.83 530.117 2641.16 529.938 2641.61C529.76 2642.05 529.671 2642.61 529.671 2643.29C529.671 2643.96 529.76 2644.52 529.938 2644.97C530.117 2645.42 530.372 2645.75 530.703 2645.98C531.047 2646.2 531.461 2646.31 531.945 2646.31C532.417 2646.31 532.818 2646.2 533.149 2645.98C533.493 2645.75 533.755 2645.42 533.933 2644.97C534.111 2644.52 534.201 2643.96 534.201 2643.29C534.201 2642.61 534.111 2642.05 533.933 2641.61C533.755 2641.16 533.493 2640.83 533.149 2640.61C532.818 2640.38 532.417 2640.27 531.945 2640.27ZM541.609 2634.32V2645.12C541.609 2645.57 541.686 2645.88 541.839 2646.06C541.991 2646.24 542.246 2646.33 542.603 2646.33C542.82 2646.33 542.998 2646.31 543.138 2646.29C543.278 2646.25 543.457 2646.2 543.673 2646.14L543.444 2647.86C543.227 2647.98 542.953 2648.08 542.622 2648.14C542.304 2648.22 541.985 2648.26 541.667 2648.26C540.736 2648.26 540.055 2648.03 539.621 2647.59C539.201 2647.13 538.991 2646.4 538.991 2645.41V2634.32H541.609ZM547.713 2634.32V2645.12C547.713 2645.57 547.789 2645.88 547.942 2646.06C548.095 2646.24 548.35 2646.33 548.706 2646.33C548.923 2646.33 549.101 2646.31 549.242 2646.29C549.382 2646.25 549.56 2646.2 549.777 2646.14L549.547 2647.86C549.331 2647.98 549.057 2648.08 548.726 2648.14C548.407 2648.22 548.088 2648.26 547.77 2648.26C546.84 2648.26 546.158 2648.03 545.725 2647.59C545.304 2647.13 545.094 2646.4 545.094 2645.41V2634.32H547.713ZM555.67 2648.26C554.663 2648.26 553.784 2648.06 553.032 2647.66C552.293 2647.27 551.72 2646.7 551.312 2645.96C550.904 2645.22 550.701 2644.33 550.701 2643.29C550.701 2642.24 550.904 2641.35 551.312 2640.61C551.72 2639.87 552.287 2639.31 553.013 2638.91C553.752 2638.52 554.593 2638.32 555.536 2638.32C556.505 2638.32 557.326 2638.52 558.002 2638.91C558.677 2639.29 559.193 2639.82 559.55 2640.5C559.907 2641.16 560.085 2641.92 560.085 2642.77C560.085 2643.03 560.079 2643.27 560.066 2643.5C560.053 2643.73 560.034 2643.93 560.009 2644.11H552.383V2642.29H558.862L557.6 2642.75C557.6 2641.95 557.416 2641.33 557.046 2640.9C556.689 2640.46 556.18 2640.25 555.517 2640.25C555.033 2640.25 554.612 2640.36 554.256 2640.59C553.912 2640.82 553.65 2641.17 553.472 2641.62C553.294 2642.07 553.204 2642.64 553.204 2643.33C553.204 2644 553.3 2644.56 553.491 2645.01C553.695 2645.44 553.975 2645.77 554.332 2645.98C554.702 2646.2 555.141 2646.31 555.651 2646.31C556.211 2646.31 556.664 2646.2 557.008 2645.98C557.352 2645.77 557.619 2645.47 557.811 2645.08L559.894 2645.89C559.69 2646.38 559.378 2646.81 558.957 2647.17C558.55 2647.52 558.059 2647.8 557.486 2647.99C556.925 2648.17 556.32 2648.26 555.67 2648.26ZM566.643 2638.32C567.496 2638.32 568.216 2638.45 568.802 2638.7C569.401 2638.94 569.879 2639.28 570.236 2639.71C570.605 2640.13 570.866 2640.61 571.019 2641.13L568.573 2642.01C568.446 2641.43 568.229 2641 567.923 2640.71C567.617 2640.41 567.203 2640.27 566.681 2640.27C566.197 2640.27 565.782 2640.38 565.438 2640.61C565.094 2640.83 564.833 2641.17 564.655 2641.62C564.476 2642.07 564.387 2642.63 564.387 2643.31C564.387 2643.98 564.476 2644.54 564.655 2644.99C564.846 2645.43 565.114 2645.77 565.458 2645.98C565.814 2646.2 566.228 2646.31 566.7 2646.31C567.082 2646.31 567.407 2646.24 567.675 2646.12C567.942 2645.98 568.159 2645.78 568.324 2645.52C568.503 2645.27 568.624 2644.96 568.688 2644.61L571.058 2645.37C570.917 2645.94 570.656 2646.45 570.274 2646.88C569.892 2647.31 569.401 2647.65 568.802 2647.89C568.203 2648.14 567.509 2648.26 566.719 2648.26C565.738 2648.26 564.871 2648.06 564.12 2647.66C563.368 2647.27 562.788 2646.7 562.38 2645.96C561.973 2645.22 561.769 2644.33 561.769 2643.29C561.769 2642.24 561.973 2641.35 562.38 2640.61C562.788 2639.87 563.362 2639.31 564.101 2638.91C564.84 2638.52 565.687 2638.32 566.643 2638.32ZM576.475 2635.58V2644.95C576.475 2645.41 576.59 2645.75 576.819 2645.96C577.061 2646.17 577.386 2646.27 577.794 2646.27C578.112 2646.27 578.393 2646.22 578.635 2646.14C578.877 2646.03 579.094 2645.9 579.285 2645.73L579.705 2647.47C579.399 2647.72 579.017 2647.91 578.558 2648.05C578.1 2648.19 577.616 2648.26 577.106 2648.26C576.469 2648.26 575.902 2648.16 575.405 2647.97C574.921 2647.78 574.538 2647.47 574.258 2647.05C573.991 2646.63 573.857 2646.07 573.857 2645.37V2636.31L576.475 2635.58ZM579.533 2638.51V2640.46H572.098V2638.51H579.533ZM582.623 2637.13C582.076 2637.13 581.668 2637.02 581.4 2636.79C581.133 2636.55 580.999 2636.2 580.999 2635.74C580.999 2635.27 581.133 2634.92 581.4 2634.69C581.668 2634.44 582.076 2634.32 582.623 2634.32C583.171 2634.32 583.579 2634.44 583.847 2634.69C584.114 2634.92 584.248 2635.27 584.248 2635.74C584.248 2636.2 584.114 2636.55 583.847 2636.79C583.579 2637.02 583.171 2637.13 582.623 2637.13ZM583.923 2638.51V2648.07H581.305V2638.51H583.923ZM591.057 2638.32C592.025 2638.32 592.872 2638.52 593.599 2638.91C594.338 2639.31 594.911 2639.87 595.319 2640.61C595.739 2641.35 595.949 2642.24 595.949 2643.29C595.949 2644.32 595.739 2645.21 595.319 2645.96C594.911 2646.7 594.338 2647.27 593.599 2647.66C592.872 2648.06 592.025 2648.26 591.057 2648.26C590.101 2648.26 589.254 2648.06 588.515 2647.66C587.776 2647.27 587.196 2646.7 586.775 2645.96C586.368 2645.21 586.164 2644.32 586.164 2643.29C586.164 2642.24 586.368 2641.35 586.775 2640.61C587.196 2639.87 587.776 2639.31 588.515 2638.91C589.254 2638.52 590.101 2638.32 591.057 2638.32ZM591.057 2640.27C590.572 2640.27 590.158 2640.38 589.814 2640.61C589.483 2640.83 589.228 2641.16 589.05 2641.61C588.871 2642.05 588.782 2642.61 588.782 2643.29C588.782 2643.96 588.871 2644.52 589.05 2644.97C589.228 2645.42 589.483 2645.75 589.814 2645.98C590.158 2646.2 590.572 2646.31 591.057 2646.31C591.528 2646.31 591.929 2646.2 592.261 2645.98C592.605 2645.75 592.866 2645.42 593.044 2644.97C593.223 2644.52 593.312 2643.96 593.312 2643.29C593.312 2642.61 593.223 2642.05 593.044 2641.61C592.866 2641.16 592.605 2640.83 592.261 2640.61C591.929 2640.38 591.528 2640.27 591.057 2640.27ZM598.14 2648.07V2638.51H600.491L600.644 2641.38L600.319 2641.07C600.472 2640.45 600.714 2639.93 601.045 2639.52C601.377 2639.11 601.778 2638.81 602.25 2638.62C602.734 2638.42 603.263 2638.32 603.836 2638.32C604.499 2638.32 605.085 2638.45 605.594 2638.7C606.117 2638.96 606.524 2639.34 606.818 2639.87C607.123 2640.38 607.276 2641.02 607.276 2641.8V2648.07H604.658V2642.54C604.658 2641.73 604.499 2641.17 604.18 2640.86C603.861 2640.54 603.447 2640.38 602.938 2640.38C602.581 2640.38 602.23 2640.47 601.886 2640.65C601.555 2640.82 601.281 2641.09 601.065 2641.47C600.861 2641.85 600.759 2642.36 600.759 2643V2648.07H598.14Z" fill="white"/>
<path d="M609.142 2586.12C608.702 2586.12 608.345 2586.47 608.345 2586.91C608.345 2587.35 608.702 2587.71 609.142 2587.71L609.142 2586.12ZM745.936 2586.91L741.338 2582.31L736.74 2586.91L741.338 2591.51L745.936 2586.91ZM613.863 2587.71C614.303 2587.71 614.659 2587.35 614.659 2586.91C614.659 2586.47 614.303 2586.12 613.863 2586.12L613.863 2587.71ZM623.305 2586.12C622.866 2586.12 622.509 2586.47 622.509 2586.91C622.509 2587.35 622.866 2587.71 623.305 2587.71L623.305 2586.12ZM632.748 2587.71C633.188 2587.71 633.544 2587.35 633.544 2586.91C633.544 2586.47 633.188 2586.12 632.748 2586.12L632.748 2587.71ZM642.191 2586.12C641.751 2586.12 641.394 2586.47 641.394 2586.91C641.394 2587.35 641.751 2587.71 642.191 2587.71L642.191 2586.12ZM651.633 2587.71C652.073 2587.71 652.43 2587.35 652.43 2586.91C652.43 2586.47 652.073 2586.12 651.633 2586.12L651.633 2587.71ZM661.076 2586.12C660.636 2586.12 660.28 2586.47 660.28 2586.91C660.28 2587.35 660.636 2587.71 661.076 2587.71L661.076 2586.12ZM670.518 2587.71C670.958 2587.71 671.315 2587.35 671.315 2586.91C671.315 2586.47 670.958 2586.12 670.518 2586.12L670.518 2587.71ZM679.961 2586.12C679.521 2586.12 679.165 2586.47 679.165 2586.91C679.165 2587.35 679.521 2587.71 679.961 2587.71L679.961 2586.12ZM689.404 2587.71C689.844 2587.71 690.2 2587.35 690.2 2586.91C690.2 2586.47 689.844 2586.12 689.404 2586.12L689.404 2587.71ZM698.846 2586.12C698.406 2586.12 698.05 2586.47 698.05 2586.91C698.05 2587.35 698.406 2587.71 698.846 2587.71L698.846 2586.12ZM708.289 2587.71C708.729 2587.71 709.085 2587.35 709.085 2586.91C709.085 2586.47 708.729 2586.12 708.289 2586.12L708.289 2587.71ZM717.731 2586.12C717.292 2586.12 716.935 2586.47 716.935 2586.91C716.935 2587.35 717.292 2587.71 717.731 2587.71L717.731 2586.12ZM727.174 2587.71C727.614 2587.71 727.97 2587.35 727.97 2586.91C727.97 2586.47 727.614 2586.12 727.174 2586.12L727.174 2587.71ZM736.617 2586.12C736.177 2586.12 735.82 2586.47 735.82 2586.91C735.82 2587.35 736.177 2587.71 736.617 2587.71L736.617 2586.12ZM609.142 2587.71L613.863 2587.71L613.863 2586.12L609.142 2586.12L609.142 2587.71ZM623.305 2587.71L632.748 2587.71L632.748 2586.12L623.305 2586.12L623.305 2587.71ZM642.191 2587.71L651.633 2587.71L651.633 2586.12L642.191 2586.12L642.191 2587.71ZM661.076 2587.71L670.518 2587.71L670.518 2586.12L661.076 2586.12L661.076 2587.71ZM679.961 2587.71L689.404 2587.71L689.404 2586.12L679.961 2586.12L679.961 2587.71ZM698.846 2587.71L708.289 2587.71L708.289 2586.12L698.846 2586.12L698.846 2587.71ZM717.731 2587.71L727.174 2587.71L727.174 2586.12L717.731 2586.12L717.731 2587.71ZM736.617 2587.71L741.338 2587.71L741.338 2586.12L736.617 2586.12L736.617 2587.71Z" fill="white"/>
<g filter="url(#filter4_b_1068_3494)">
<circle cx="809.338" cy="2563.97" r="42.2073" fill="url(#paint2_linear_1068_3494)"/>
</g>
<path d="M807.851 2557.6L808.144 2557.59H820.089C821.411 2557.59 822.683 2558.1 823.644 2559.01C824.605 2559.92 825.182 2561.16 825.258 2562.48L825.265 2562.77V2574.72C825.266 2576.04 824.76 2577.31 823.852 2578.27C822.944 2579.23 821.702 2579.81 820.382 2579.88L820.089 2579.89H808.144C806.821 2579.89 805.549 2579.39 804.588 2578.48C803.627 2577.57 803.05 2576.33 802.975 2575.01L802.967 2574.72V2562.77C802.967 2561.45 803.473 2560.18 804.381 2559.22C805.289 2558.26 806.531 2557.68 807.851 2557.6V2557.6ZM820.089 2559.98H808.144C807.444 2559.98 806.77 2560.25 806.256 2560.72C805.741 2561.19 805.423 2561.84 805.366 2562.54L805.356 2562.77V2574.72C805.356 2575.42 805.62 2576.09 806.094 2576.6C806.568 2577.12 807.218 2577.44 807.916 2577.49L808.144 2577.5H820.089C820.789 2577.5 821.463 2577.24 821.978 2576.77C822.492 2576.29 822.81 2575.64 822.867 2574.94L822.876 2574.72V2562.77C822.876 2562.03 822.583 2561.32 822.06 2560.8C821.537 2560.28 820.828 2559.98 820.089 2559.98V2559.98ZM814.116 2562.37C814.433 2562.37 814.737 2562.5 814.961 2562.72C815.185 2562.95 815.311 2563.25 815.311 2563.57V2567.55H819.293C819.61 2567.55 819.913 2567.67 820.137 2567.9C820.361 2568.12 820.487 2568.43 820.487 2568.74C820.487 2569.06 820.361 2569.36 820.137 2569.59C819.913 2569.81 819.61 2569.94 819.293 2569.94H815.311V2573.92C815.311 2574.24 815.185 2574.54 814.961 2574.77C814.737 2574.99 814.433 2575.12 814.116 2575.12C813.8 2575.12 813.496 2574.99 813.272 2574.77C813.048 2574.54 812.922 2574.24 812.922 2573.92V2569.94H808.94C808.623 2569.94 808.319 2569.81 808.095 2569.59C807.871 2569.36 807.745 2569.06 807.745 2568.74C807.745 2568.43 807.871 2568.12 808.095 2567.9C808.319 2567.67 808.623 2567.55 808.94 2567.55H812.922V2563.57C812.922 2563.25 813.048 2562.95 813.272 2562.72C813.496 2562.5 813.8 2562.37 814.116 2562.37ZM815.043 2551.6L815.126 2551.88L816.23 2556H813.756L812.82 2552.5C812.725 2552.14 812.562 2551.81 812.339 2551.52C812.116 2551.23 811.838 2550.99 811.521 2550.8C811.204 2550.62 810.854 2550.5 810.491 2550.45C810.128 2550.41 809.759 2550.43 809.405 2550.52L797.867 2553.62C797.194 2553.8 796.612 2554.22 796.238 2554.81C795.864 2555.4 795.723 2556.11 795.845 2556.8L795.896 2557.03L798.989 2568.57C799.134 2569.11 799.439 2569.6 799.865 2569.96C800.291 2570.33 800.817 2570.56 801.375 2570.62V2573.02C800.339 2572.96 799.346 2572.58 798.524 2571.95C797.702 2571.32 797.088 2570.45 796.764 2569.47L796.681 2569.19L793.589 2557.65C793.247 2556.37 793.406 2555.01 794.034 2553.85C794.662 2552.69 795.711 2551.81 796.966 2551.39L797.249 2551.31L808.787 2548.22C810.064 2547.88 811.423 2548.03 812.587 2548.66C813.75 2549.29 814.629 2550.34 815.043 2551.59V2551.6Z" fill="#F81DFB"/>
<path d="M753.933 2649.66H751.2L750.149 2646.58H745.313L744.262 2649.66H741.567L746.173 2637.04H749.327L753.933 2649.66ZM745.906 2644.63H749.556L747.722 2639.13L745.906 2644.63ZM758.906 2649.85C758.116 2649.85 757.409 2649.65 756.785 2649.26C756.173 2648.86 755.689 2648.29 755.332 2647.56C754.988 2646.82 754.816 2645.93 754.816 2644.9C754.816 2643.84 755.001 2642.94 755.371 2642.2C755.74 2641.45 756.237 2640.88 756.861 2640.5C757.498 2640.11 758.212 2639.91 759.002 2639.91C759.843 2639.91 760.537 2640.15 761.085 2640.64C761.633 2641.12 761.99 2641.75 762.156 2642.51L761.907 2642.82V2635.92H764.526V2649.66H762.175L762.003 2646.75L762.328 2646.91C762.238 2647.5 762.034 2648.03 761.716 2648.47C761.397 2648.91 760.996 2649.24 760.512 2649.49C760.028 2649.73 759.492 2649.85 758.906 2649.85ZM759.671 2647.84C760.13 2647.84 760.525 2647.73 760.856 2647.5C761.187 2647.26 761.442 2646.91 761.62 2646.45C761.812 2645.99 761.907 2645.44 761.907 2644.8C761.907 2644.19 761.818 2643.68 761.639 2643.25C761.461 2642.82 761.206 2642.49 760.875 2642.26C760.544 2642.03 760.155 2641.92 759.709 2641.92C758.996 2641.92 758.435 2642.17 758.027 2642.68C757.632 2643.18 757.435 2643.91 757.435 2644.88C757.435 2645.85 757.632 2646.59 758.027 2647.1C758.422 2647.59 758.97 2647.84 759.671 2647.84ZM770.889 2649.85C770.099 2649.85 769.392 2649.65 768.768 2649.26C768.156 2648.86 767.672 2648.29 767.315 2647.56C766.971 2646.82 766.799 2645.93 766.799 2644.9C766.799 2643.84 766.984 2642.94 767.353 2642.2C767.723 2641.45 768.22 2640.88 768.844 2640.5C769.481 2640.11 770.195 2639.91 770.985 2639.91C771.826 2639.91 772.52 2640.15 773.068 2640.64C773.616 2641.12 773.973 2641.75 774.138 2642.51L773.89 2642.82V2635.92H776.508V2649.66H774.157L773.985 2646.75L774.31 2646.91C774.221 2647.5 774.017 2648.03 773.699 2648.47C773.38 2648.91 772.979 2649.24 772.495 2649.49C772.01 2649.73 771.475 2649.85 770.889 2649.85ZM771.654 2647.84C772.112 2647.84 772.507 2647.73 772.839 2647.5C773.17 2647.26 773.425 2646.91 773.603 2646.45C773.794 2645.99 773.89 2645.44 773.89 2644.8C773.89 2644.19 773.801 2643.68 773.622 2643.25C773.444 2642.82 773.189 2642.49 772.858 2642.26C772.526 2642.03 772.138 2641.92 771.692 2641.92C770.978 2641.92 770.418 2642.17 770.01 2642.68C769.615 2643.18 769.417 2643.91 769.417 2644.88C769.417 2645.85 769.615 2646.59 770.01 2647.1C770.405 2647.59 770.953 2647.84 771.654 2647.84ZM794.864 2637.04L790.392 2644.94V2649.66H787.754V2644.94L783.282 2637.04H786.092L788.118 2640.83L789.073 2642.8L790.048 2640.83L792.074 2637.04H794.864ZM798.96 2639.91C799.928 2639.91 800.775 2640.11 801.502 2640.5C802.241 2640.9 802.814 2641.46 803.222 2642.2C803.642 2642.94 803.853 2643.83 803.853 2644.88C803.853 2645.91 803.642 2646.8 803.222 2647.56C802.814 2648.29 802.241 2648.86 801.502 2649.26C800.775 2649.65 799.928 2649.85 798.96 2649.85C798.004 2649.85 797.157 2649.65 796.418 2649.26C795.679 2648.86 795.099 2648.29 794.679 2647.56C794.271 2646.8 794.067 2645.91 794.067 2644.88C794.067 2643.83 794.271 2642.94 794.679 2642.2C795.099 2641.46 795.679 2640.9 796.418 2640.5C797.157 2640.11 798.004 2639.91 798.96 2639.91ZM798.96 2641.86C798.476 2641.86 798.061 2641.97 797.717 2642.2C797.386 2642.42 797.131 2642.75 796.953 2643.2C796.775 2643.64 796.685 2644.2 796.685 2644.88C796.685 2645.55 796.775 2646.12 796.953 2646.56C797.131 2647.01 797.386 2647.35 797.717 2647.57C798.061 2647.79 798.476 2647.9 798.96 2647.9C799.431 2647.9 799.833 2647.79 800.164 2647.57C800.508 2647.35 800.769 2647.01 800.948 2646.56C801.126 2646.12 801.215 2645.55 801.215 2644.88C801.215 2644.2 801.126 2643.64 800.948 2643.2C800.769 2642.75 800.508 2642.42 800.164 2642.2C799.833 2641.97 799.431 2641.86 798.96 2641.86ZM809.369 2649.85C808.732 2649.85 808.159 2649.73 807.649 2649.5C807.139 2649.28 806.732 2648.91 806.426 2648.42C806.133 2647.91 805.986 2647.25 805.986 2646.45V2640.1H808.605V2645.82C808.605 2646.56 808.758 2647.07 809.063 2647.36C809.369 2647.64 809.809 2647.78 810.382 2647.78C810.65 2647.78 810.911 2647.74 811.166 2647.65C811.421 2647.55 811.644 2647.4 811.835 2647.19C812.039 2646.99 812.198 2646.73 812.313 2646.41C812.427 2646.08 812.485 2645.69 812.485 2645.24V2640.1H815.103V2649.66H812.771L812.676 2647.99C812.357 2648.63 811.918 2649.1 811.357 2649.41C810.809 2649.7 810.146 2649.85 809.369 2649.85ZM817.858 2649.66V2640.1H820.133L820.305 2641.97C820.56 2641.31 820.929 2640.8 821.413 2640.45C821.91 2640.09 822.528 2639.91 823.267 2639.91C823.484 2639.91 823.681 2639.93 823.86 2639.97C824.038 2640.01 824.185 2640.06 824.299 2640.12L823.994 2642.32C823.866 2642.27 823.707 2642.23 823.516 2642.2C823.337 2642.18 823.102 2642.17 822.809 2642.17C822.426 2642.17 822.057 2642.26 821.7 2642.45C821.343 2642.63 821.05 2642.91 820.821 2643.29C820.592 2643.66 820.477 2644.13 820.477 2644.71V2649.66H817.858ZM842.514 2637.04V2649.66H839.494L835.079 2642.24L833.989 2640.18H833.97L834.047 2642.36V2649.66H831.677V2637.04H834.677L839.092 2644.44L840.182 2646.52H840.22L840.144 2644.34V2637.04H842.514ZM855.248 2639.16H848.443V2642.38H853.814V2644.5H848.443V2649.66H845.806V2637.04H855.248V2639.16ZM867.485 2637.04V2639.16H863.262V2649.66H860.624V2639.16H856.381V2637.04H867.485ZM871.423 2649.85C870.454 2649.85 869.569 2649.68 868.766 2649.33C867.976 2648.99 867.332 2648.5 866.835 2647.88L868.345 2646.35C868.651 2646.81 869.059 2647.19 869.569 2647.48C870.078 2647.77 870.684 2647.92 871.384 2647.92C871.881 2647.92 872.276 2647.85 872.569 2647.71C872.875 2647.56 873.028 2647.32 873.028 2647C873.028 2646.8 872.958 2646.63 872.818 2646.49C872.678 2646.33 872.397 2646.21 871.977 2646.12L870.295 2645.78C869.186 2645.55 868.396 2645.2 867.925 2644.75C867.466 2644.27 867.237 2643.67 867.237 2642.93C867.237 2642.41 867.39 2641.92 867.696 2641.46C868.014 2641 868.486 2640.63 869.11 2640.35C869.734 2640.06 870.512 2639.91 871.442 2639.91C872.397 2639.91 873.226 2640.06 873.926 2640.37C874.64 2640.66 875.201 2641.1 875.608 2641.69L874.041 2643.22C873.761 2642.77 873.391 2642.43 872.932 2642.2C872.486 2641.96 872.015 2641.84 871.518 2641.84C871.161 2641.84 870.856 2641.88 870.601 2641.96C870.346 2642.03 870.155 2642.14 870.027 2642.28C869.9 2642.41 869.836 2642.57 869.836 2642.78C869.836 2642.98 869.925 2643.16 870.104 2643.31C870.282 2643.45 870.607 2643.57 871.079 2643.68L873.028 2644.08C873.971 2644.27 874.646 2644.59 875.054 2645.05C875.462 2645.5 875.666 2646.04 875.666 2646.68C875.666 2647.29 875.5 2647.84 875.169 2648.32C874.85 2648.79 874.372 2649.17 873.735 2649.45C873.111 2649.72 872.34 2649.85 871.423 2649.85Z" fill="white"/>
<path d="M911.582 2586.91C911.142 2586.91 910.785 2587.27 910.785 2587.71C910.785 2588.15 911.142 2588.51 911.582 2588.51V2586.91ZM1015.72 2587.71L1011.13 2583.11L1006.53 2587.71L1011.13 2592.31L1015.72 2587.71ZM916.559 2588.51C916.999 2588.51 917.355 2588.15 917.355 2587.71C917.355 2587.27 916.999 2586.91 916.559 2586.91V2588.51ZM926.513 2586.91C926.074 2586.91 925.717 2587.27 925.717 2587.71C925.717 2588.15 926.074 2588.51 926.513 2588.51V2586.91ZM936.468 2588.51C936.908 2588.51 937.264 2588.15 937.264 2587.71C937.264 2587.27 936.908 2586.91 936.468 2586.91V2588.51ZM946.422 2586.91C945.983 2586.91 945.626 2587.27 945.626 2587.71C945.626 2588.15 945.983 2588.51 946.422 2588.51V2586.91ZM956.377 2588.51C956.817 2588.51 957.173 2588.15 957.173 2587.71C957.173 2587.27 956.817 2586.91 956.377 2586.91V2588.51ZM966.332 2586.91C965.892 2586.91 965.535 2587.27 965.535 2587.71C965.535 2588.15 965.892 2588.51 966.332 2588.51V2586.91ZM976.286 2588.51C976.726 2588.51 977.082 2588.15 977.082 2587.71C977.082 2587.27 976.726 2586.91 976.286 2586.91V2588.51ZM986.241 2586.91C985.801 2586.91 985.444 2587.27 985.444 2587.71C985.444 2588.15 985.801 2588.51 986.241 2588.51V2586.91ZM996.195 2588.51C996.635 2588.51 996.992 2588.15 996.992 2587.71C996.992 2587.27 996.635 2586.91 996.195 2586.91V2588.51ZM1006.15 2586.91C1005.71 2586.91 1005.35 2587.27 1005.35 2587.71C1005.35 2588.15 1005.71 2588.51 1006.15 2588.51V2586.91ZM911.582 2588.51H916.559V2586.91H911.582V2588.51ZM926.513 2588.51H936.468V2586.91H926.513V2588.51ZM946.422 2588.51H956.377V2586.91H946.422V2588.51ZM966.332 2588.51H976.286V2586.91H966.332V2588.51ZM986.241 2588.51H996.195V2586.91H986.241V2588.51ZM1006.15 2588.51H1011.13V2586.91H1006.15V2588.51Z" fill="white"/>
<g filter="url(#filter5_b_1068_3494)">
<circle cx="1099.13" cy="2563.97" r="42.2073" fill="url(#paint3_linear_1068_3494)"/>
</g>
<path d="M1112.67 2556L1099.13 2548.04L1085.59 2556V2571.93L1099.13 2579.89L1112.67 2571.93V2556Z" stroke="#F81DFB" stroke-width="2.38909" stroke-linejoin="round"/>
<path d="M1099.13 2562.37V2568.75" stroke="#F81DFB" stroke-width="2.38909" stroke-linecap="round" stroke-linejoin="round"/>
<path d="M1105.5 2559.19V2568.75" stroke="#F81DFB" stroke-width="2.38909" stroke-linecap="round" stroke-linejoin="round"/>
<path d="M1092.76 2565.56V2568.75" stroke="#F81DFB" stroke-width="2.38909" stroke-linecap="round" stroke-linejoin="round"/>
<path d="M1015.41 2647.54H1022.06V2649.66H1012.77V2637.04H1015.41V2647.54ZM1025.3 2638.73C1024.75 2638.73 1024.35 2638.61 1024.08 2638.38C1023.81 2638.14 1023.68 2637.79 1023.68 2637.33C1023.68 2636.86 1023.81 2636.51 1024.08 2636.28C1024.35 2636.04 1024.75 2635.92 1025.3 2635.92C1025.85 2635.92 1026.26 2636.04 1026.52 2636.28C1026.79 2636.51 1026.93 2636.86 1026.93 2637.33C1026.93 2637.79 1026.79 2638.14 1026.52 2638.38C1026.26 2638.61 1025.85 2638.73 1025.3 2638.73ZM1026.6 2640.1V2649.66H1023.98V2640.1H1026.6ZM1033.2 2649.85C1032.23 2649.85 1031.34 2649.68 1030.54 2649.33C1029.75 2648.99 1029.11 2648.5 1028.61 2647.88L1030.12 2646.35C1030.43 2646.81 1030.83 2647.19 1031.34 2647.48C1031.85 2647.77 1032.46 2647.92 1033.16 2647.92C1033.66 2647.92 1034.05 2647.85 1034.35 2647.71C1034.65 2647.56 1034.8 2647.32 1034.8 2647C1034.8 2646.8 1034.73 2646.63 1034.59 2646.49C1034.45 2646.33 1034.17 2646.21 1033.75 2646.12L1032.07 2645.78C1030.96 2645.55 1030.17 2645.2 1029.7 2644.75C1029.24 2644.27 1029.01 2643.67 1029.01 2642.93C1029.01 2642.41 1029.17 2641.92 1029.47 2641.46C1029.79 2641 1030.26 2640.63 1030.89 2640.35C1031.51 2640.06 1032.29 2639.91 1033.22 2639.91C1034.17 2639.91 1035 2640.06 1035.7 2640.37C1036.42 2640.66 1036.98 2641.1 1037.38 2641.69L1035.82 2643.22C1035.54 2642.77 1035.17 2642.43 1034.71 2642.2C1034.26 2641.96 1033.79 2641.84 1033.29 2641.84C1032.94 2641.84 1032.63 2641.88 1032.38 2641.96C1032.12 2642.03 1031.93 2642.14 1031.8 2642.28C1031.68 2642.41 1031.61 2642.57 1031.61 2642.78C1031.61 2642.98 1031.7 2643.16 1031.88 2643.31C1032.06 2643.45 1032.38 2643.57 1032.85 2643.68L1034.8 2644.08C1035.75 2644.27 1036.42 2644.59 1036.83 2645.05C1037.24 2645.5 1037.44 2646.04 1037.44 2646.68C1037.44 2647.29 1037.28 2647.84 1036.94 2648.32C1036.63 2648.79 1036.15 2649.17 1035.51 2649.45C1034.89 2649.72 1034.12 2649.85 1033.2 2649.85ZM1042.91 2637.18V2646.54C1042.91 2647 1043.03 2647.34 1043.26 2647.56C1043.5 2647.76 1043.82 2647.86 1044.23 2647.86C1044.55 2647.86 1044.83 2647.82 1045.07 2647.73C1045.31 2647.63 1045.53 2647.49 1045.72 2647.33L1046.14 2649.07C1045.84 2649.31 1045.45 2649.5 1045 2649.64C1044.54 2649.78 1044.05 2649.85 1043.54 2649.85C1042.91 2649.85 1042.34 2649.75 1041.84 2649.56C1041.36 2649.37 1040.98 2649.07 1040.7 2648.64C1040.43 2648.22 1040.29 2647.66 1040.29 2646.96V2637.9L1042.91 2637.18ZM1045.97 2640.1V2642.05H1038.54V2640.1H1045.97ZM1063.44 2637.04V2639.16H1059.21V2649.66H1056.58V2639.16H1052.33V2637.04H1063.44ZM1065.1 2649.66V2635.92H1067.72V2641.73C1068.02 2641.11 1068.45 2640.66 1068.98 2640.37C1069.52 2640.06 1070.12 2639.91 1070.8 2639.91C1071.46 2639.91 1072.04 2640.04 1072.55 2640.29C1073.08 2640.55 1073.48 2640.94 1073.78 2641.46C1074.08 2641.97 1074.24 2642.61 1074.24 2643.39V2649.66H1071.62V2644.15C1071.62 2643.33 1071.46 2642.76 1071.14 2642.45C1070.82 2642.13 1070.41 2641.97 1069.92 2641.97C1069.55 2641.97 1069.19 2642.06 1068.85 2642.24C1068.52 2642.41 1068.24 2642.69 1068.02 2643.08C1067.82 2643.47 1067.72 2643.97 1067.72 2644.61V2649.66H1065.1ZM1081.37 2649.85C1080.36 2649.85 1079.48 2649.65 1078.73 2649.26C1077.99 2648.86 1077.42 2648.29 1077.01 2647.56C1076.6 2646.82 1076.4 2645.92 1076.4 2644.88C1076.4 2643.83 1076.6 2642.94 1077.01 2642.2C1077.42 2641.46 1077.99 2640.9 1078.71 2640.5C1079.45 2640.11 1080.29 2639.91 1081.23 2639.91C1082.2 2639.91 1083.02 2640.11 1083.7 2640.5C1084.38 2640.88 1084.89 2641.41 1085.25 2642.09C1085.6 2642.75 1085.78 2643.51 1085.78 2644.36C1085.78 2644.62 1085.78 2644.86 1085.76 2645.09C1085.75 2645.32 1085.73 2645.52 1085.71 2645.7H1078.08V2643.89H1084.56L1083.3 2644.34C1083.3 2643.54 1083.11 2642.92 1082.74 2642.49C1082.39 2642.06 1081.88 2641.84 1081.22 2641.84C1080.73 2641.84 1080.31 2641.96 1079.95 2642.18C1079.61 2642.41 1079.35 2642.76 1079.17 2643.22C1078.99 2643.66 1078.9 2644.23 1078.9 2644.92C1078.9 2645.59 1079 2646.15 1079.19 2646.6C1079.39 2647.03 1079.67 2647.36 1080.03 2647.57C1080.4 2647.79 1080.84 2647.9 1081.35 2647.9C1081.91 2647.9 1082.36 2647.79 1082.71 2647.57C1083.05 2647.36 1083.32 2647.06 1083.51 2646.68L1085.59 2647.48C1085.39 2647.98 1085.08 2648.4 1084.66 2648.76C1084.25 2649.12 1083.76 2649.39 1083.18 2649.58C1082.62 2649.76 1082.02 2649.85 1081.37 2649.85ZM1088 2649.66V2640.1H1090.35L1090.45 2641.82C1090.77 2641.18 1091.2 2640.71 1091.75 2640.39C1092.31 2640.07 1092.93 2639.91 1093.6 2639.91C1094.29 2639.91 1094.91 2640.07 1095.46 2640.39C1096.02 2640.71 1096.44 2641.18 1096.72 2641.8C1096.92 2641.38 1097.2 2641.03 1097.54 2640.75C1097.88 2640.47 1098.27 2640.26 1098.69 2640.12C1099.11 2639.98 1099.53 2639.91 1099.97 2639.91C1100.59 2639.91 1101.16 2640.04 1101.67 2640.29C1102.19 2640.55 1102.6 2640.93 1102.91 2641.44C1103.22 2641.95 1103.37 2642.6 1103.37 2643.39V2649.66H1100.75V2643.9C1100.75 2643.2 1100.6 2642.71 1100.29 2642.41C1099.99 2642.12 1099.59 2641.97 1099.11 2641.97C1098.72 2641.97 1098.37 2642.07 1098.04 2642.26C1097.72 2642.45 1097.46 2642.74 1097.27 2643.12C1097.09 2643.49 1097 2643.96 1097 2644.52V2649.66H1094.39V2643.9C1094.39 2643.2 1094.23 2642.71 1093.91 2642.41C1093.6 2642.12 1093.21 2641.97 1092.72 2641.97C1092.39 2641.97 1092.06 2642.06 1091.73 2642.24C1091.41 2642.42 1091.14 2642.7 1090.93 2643.08C1090.72 2643.47 1090.62 2643.97 1090.62 2644.59V2649.66H1088ZM1121.62 2639.16H1114.82V2642.38H1120.19V2644.5H1114.82V2649.66H1112.18V2637.04H1121.62V2639.16ZM1127 2639.91C1127.97 2639.91 1128.82 2640.11 1129.54 2640.5C1130.28 2640.9 1130.86 2641.46 1131.26 2642.2C1131.68 2642.94 1131.89 2643.83 1131.89 2644.88C1131.89 2645.91 1131.68 2646.8 1131.26 2647.56C1130.86 2648.29 1130.28 2648.86 1129.54 2649.26C1128.82 2649.65 1127.97 2649.85 1127 2649.85C1126.05 2649.85 1125.2 2649.65 1124.46 2649.26C1123.72 2648.86 1123.14 2648.29 1122.72 2647.56C1122.31 2646.8 1122.11 2645.91 1122.11 2644.88C1122.11 2643.83 1122.31 2642.94 1122.72 2642.2C1123.14 2641.46 1123.72 2640.9 1124.46 2640.5C1125.2 2640.11 1126.05 2639.91 1127 2639.91ZM1127 2641.86C1126.52 2641.86 1126.1 2641.97 1125.76 2642.2C1125.43 2642.42 1125.17 2642.75 1124.99 2643.2C1124.82 2643.64 1124.73 2644.2 1124.73 2644.88C1124.73 2645.55 1124.82 2646.12 1124.99 2646.56C1125.17 2647.01 1125.43 2647.35 1125.76 2647.57C1126.1 2647.79 1126.52 2647.9 1127 2647.9C1127.47 2647.9 1127.87 2647.79 1128.21 2647.57C1128.55 2647.35 1128.81 2647.01 1128.99 2646.56C1129.17 2646.12 1129.26 2645.55 1129.26 2644.88C1129.26 2644.2 1129.17 2643.64 1128.99 2643.2C1128.81 2642.75 1128.55 2642.42 1128.21 2642.2C1127.87 2641.97 1127.47 2641.86 1127 2641.86ZM1134.09 2649.66V2640.1H1136.36L1136.53 2641.97C1136.79 2641.31 1137.16 2640.8 1137.64 2640.45C1138.14 2640.09 1138.76 2639.91 1139.49 2639.91C1139.71 2639.91 1139.91 2639.93 1140.09 2639.97C1140.27 2640.01 1140.41 2640.06 1140.53 2640.12L1140.22 2642.32C1140.09 2642.27 1139.93 2642.23 1139.74 2642.2C1139.56 2642.18 1139.33 2642.17 1139.04 2642.17C1138.65 2642.17 1138.28 2642.26 1137.93 2642.45C1137.57 2642.63 1137.28 2642.91 1137.05 2643.29C1136.82 2643.66 1136.7 2644.13 1136.7 2644.71V2649.66H1134.09ZM1152.51 2636.85C1153.66 2636.85 1154.66 2637.05 1155.53 2637.44C1156.4 2637.84 1157.14 2638.43 1157.75 2639.2L1156.27 2640.9C1155.75 2640.24 1155.18 2639.76 1154.55 2639.45C1153.94 2639.13 1153.23 2638.97 1152.41 2638.97C1151.88 2638.97 1151.43 2639.04 1151.08 2639.18C1150.73 2639.32 1150.48 2639.51 1150.31 2639.74C1150.16 2639.97 1150.08 2640.22 1150.08 2640.5C1150.08 2640.85 1150.22 2641.14 1150.48 2641.38C1150.75 2641.61 1151.21 2641.8 1151.86 2641.96L1154.21 2642.49C1155.46 2642.77 1156.35 2643.19 1156.89 2643.75C1157.43 2644.3 1157.71 2645.01 1157.71 2645.89C1157.71 2646.72 1157.49 2647.43 1157.06 2648.03C1156.63 2648.62 1156.02 2649.07 1155.24 2649.39C1154.47 2649.7 1153.57 2649.85 1152.57 2649.85C1151.69 2649.85 1150.88 2649.75 1150.14 2649.54C1149.41 2649.33 1148.76 2649.03 1148.19 2648.66C1147.62 2648.29 1147.14 2647.87 1146.76 2647.38L1148.25 2645.61C1148.54 2646.01 1148.9 2646.38 1149.34 2646.7C1149.77 2647.01 1150.26 2647.27 1150.81 2647.46C1151.37 2647.64 1151.96 2647.73 1152.57 2647.73C1153.09 2647.73 1153.53 2647.67 1153.89 2647.56C1154.26 2647.43 1154.53 2647.26 1154.71 2647.04C1154.9 2646.81 1154.99 2646.54 1154.99 2646.22C1154.99 2645.89 1154.88 2645.61 1154.65 2645.38C1154.43 2645.13 1154.03 2644.95 1153.43 2644.82L1150.87 2644.25C1150.13 2644.07 1149.49 2643.84 1148.95 2643.56C1148.43 2643.27 1148.03 2642.9 1147.75 2642.45C1147.48 2641.99 1147.35 2641.45 1147.35 2640.83C1147.35 2640.08 1147.55 2639.4 1147.96 2638.8C1148.37 2638.2 1148.95 2637.73 1149.72 2637.39C1150.5 2637.03 1151.43 2636.85 1152.51 2636.85ZM1165.27 2643.56C1165.27 2643.01 1165.11 2642.59 1164.79 2642.28C1164.49 2641.97 1164.08 2641.82 1163.57 2641.82C1163.1 2641.82 1162.68 2641.94 1162.33 2642.18C1161.97 2642.43 1161.71 2642.83 1161.54 2643.39L1159.31 2642.7C1159.52 2641.86 1160 2641.18 1160.72 2640.67C1161.46 2640.17 1162.45 2639.91 1163.68 2639.91C1164.53 2639.91 1165.26 2640.04 1165.88 2640.31C1166.51 2640.57 1166.99 2640.96 1167.34 2641.48C1167.69 2642 1167.87 2642.66 1167.87 2643.45V2647.33C1167.87 2647.81 1168.1 2648.05 1168.56 2648.05C1168.78 2648.05 1168.98 2648.02 1169.17 2647.96L1169.02 2649.58C1168.69 2649.75 1168.27 2649.83 1167.78 2649.83C1167.33 2649.83 1166.93 2649.75 1166.57 2649.6C1166.21 2649.45 1165.93 2649.22 1165.73 2648.91C1165.53 2648.59 1165.42 2648.2 1165.42 2647.73V2647.65L1165.88 2647.57C1165.81 2648.06 1165.6 2648.47 1165.25 2648.82C1164.91 2649.15 1164.49 2649.4 1163.99 2649.58C1163.51 2649.76 1163 2649.85 1162.48 2649.85C1161.83 2649.85 1161.27 2649.75 1160.8 2649.56C1160.33 2649.36 1159.96 2649.07 1159.71 2648.68C1159.45 2648.3 1159.33 2647.83 1159.33 2647.27C1159.33 2646.56 1159.56 2645.98 1160.02 2645.53C1160.47 2645.07 1161.13 2644.76 1161.98 2644.59L1165.58 2643.87L1165.56 2645.49L1163.26 2645.95C1162.83 2646.04 1162.5 2646.16 1162.27 2646.31C1162.05 2646.45 1161.95 2646.69 1161.95 2647.02C1161.95 2647.34 1162.06 2647.58 1162.29 2647.75C1162.53 2647.91 1162.82 2647.99 1163.15 2647.99C1163.42 2647.99 1163.68 2647.96 1163.93 2647.9C1164.19 2647.84 1164.42 2647.73 1164.62 2647.59C1164.83 2647.45 1164.98 2647.26 1165.1 2647.02C1165.21 2646.78 1165.27 2646.49 1165.27 2646.14V2643.56ZM1173.38 2635.92V2646.71C1173.38 2647.16 1173.46 2647.47 1173.61 2647.65C1173.76 2647.83 1174.02 2647.92 1174.37 2647.92C1174.59 2647.92 1174.77 2647.91 1174.91 2647.88C1175.05 2647.84 1175.23 2647.79 1175.44 2647.73L1175.21 2649.45C1175 2649.57 1174.72 2649.67 1174.39 2649.73C1174.07 2649.81 1173.76 2649.85 1173.44 2649.85C1172.51 2649.85 1171.82 2649.63 1171.39 2649.18C1170.97 2648.72 1170.76 2647.99 1170.76 2647V2635.92H1173.38ZM1181.34 2649.85C1180.33 2649.85 1179.45 2649.65 1178.7 2649.26C1177.96 2648.86 1177.39 2648.29 1176.98 2647.56C1176.57 2646.82 1176.37 2645.92 1176.37 2644.88C1176.37 2643.83 1176.57 2642.94 1176.98 2642.2C1177.39 2641.46 1177.95 2640.9 1178.68 2640.5C1179.42 2640.11 1180.26 2639.91 1181.2 2639.91C1182.17 2639.91 1182.99 2640.11 1183.67 2640.5C1184.34 2640.88 1184.86 2641.41 1185.22 2642.09C1185.57 2642.75 1185.75 2643.51 1185.75 2644.36C1185.75 2644.62 1185.75 2644.86 1185.73 2645.09C1185.72 2645.32 1185.7 2645.52 1185.68 2645.7H1178.05V2643.89H1184.53L1183.27 2644.34C1183.27 2643.54 1183.08 2642.92 1182.71 2642.49C1182.36 2642.06 1181.85 2641.84 1181.18 2641.84C1180.7 2641.84 1180.28 2641.96 1179.92 2642.18C1179.58 2642.41 1179.32 2642.76 1179.14 2643.22C1178.96 2643.66 1178.87 2644.23 1178.87 2644.92C1178.87 2645.59 1178.97 2646.15 1179.16 2646.6C1179.36 2647.03 1179.64 2647.36 1180 2647.57C1180.37 2647.79 1180.81 2647.9 1181.32 2647.9C1181.88 2647.9 1182.33 2647.79 1182.67 2647.57C1183.02 2647.36 1183.29 2647.06 1183.48 2646.68L1185.56 2647.48C1185.36 2647.98 1185.04 2648.4 1184.62 2648.76C1184.22 2649.12 1183.73 2649.39 1183.15 2649.58C1182.59 2649.76 1181.99 2649.85 1181.34 2649.85Z" fill="white"/>
</g>
<defs>
<filter id="filter0_f_1068_3494" x="-1737" y="1960" width="2945" height="2875" filterUnits="userSpaceOnUse" color-interpolation-filters="sRGB">
<feFlood flood-opacity="0" result="BackgroundImageFix"/>
<feBlend mode="normal" in="SourceGraphic" in2="BackgroundImageFix" result="shape"/>
<feGaussianBlur stdDeviation="400" result="effect1_foregroundBlur_1068_3494"/>
</filter>
<filter id="filter1_f_1068_3494" x="175" y="-50" width="2945" height="2875" filterUnits="userSpaceOnUse" color-interpolation-filters="sRGB">
<feFlood flood-opacity="0" result="BackgroundImageFix"/>
<feBlend mode="normal" in="SourceGraphic" in2="BackgroundImageFix" result="shape"/>
<feGaussianBlur stdDeviation="400" result="effect1_foregroundBlur_1068_3494"/>
</filter>
<filter id="filter2_b_1068_3494" x="114.866" y="2505.83" width="116.269" height="116.269" filterUnits="userSpaceOnUse" color-interpolation-filters="sRGB">
<feFlood flood-opacity="0" result="BackgroundImageFix"/>
<feGaussianBlur in="BackgroundImageFix" stdDeviation="7.96364"/>
<feComposite in2="SourceAlpha" operator="in" result="effect1_backgroundBlur_1068_3494"/>
<feBlend mode="normal" in="SourceGraphic" in2="effect1_backgroundBlur_1068_3494" result="shape"/>
</filter>
<filter id="filter3_b_1068_3494" x="446.007" y="2505.83" width="116.269" height="116.269" filterUnits="userSpaceOnUse" color-interpolation-filters="sRGB">
<feFlood flood-opacity="0" result="BackgroundImageFix"/>
<feGaussianBlur in="BackgroundImageFix" stdDeviation="7.96364"/>
<feComposite in2="SourceAlpha" operator="in" result="effect1_backgroundBlur_1068_3494"/>
<feBlend mode="normal" in="SourceGraphic" in2="effect1_backgroundBlur_1068_3494" result="shape"/>
</filter>
<filter id="filter4_b_1068_3494" x="751.204" y="2505.83" width="116.269" height="116.269" filterUnits="userSpaceOnUse" color-interpolation-filters="sRGB">
<feFlood flood-opacity="0" result="BackgroundImageFix"/>
<feGaussianBlur in="BackgroundImageFix" stdDeviation="7.96364"/>
<feComposite in2="SourceAlpha" operator="in" result="effect1_backgroundBlur_1068_3494"/>
<feBlend mode="normal" in="SourceGraphic" in2="effect1_backgroundBlur_1068_3494" result="shape"/>
</filter>
<filter id="filter5_b_1068_3494" x="1040.99" y="2505.83" width="116.269" height="116.269" filterUnits="userSpaceOnUse" color-interpolation-filters="sRGB">
<feFlood flood-opacity="0" result="BackgroundImageFix"/>
<feGaussianBlur in="BackgroundImageFix" stdDeviation="7.96364"/>
<feComposite in2="SourceAlpha" operator="in" result="effect1_backgroundBlur_1068_3494"/>
<feBlend mode="normal" in="SourceGraphic" in2="effect1_backgroundBlur_1068_3494" result="shape"/>
</filter>
<linearGradient id="paint0_linear_1068_3494" x1="130.793" y1="2521.76" x2="192.929" y2="2620.23" gradientUnits="userSpaceOnUse">
<stop stop-color="white" stop-opacity="0.1"/>
<stop offset="1" stop-color="white" stop-opacity="0.05"/>
</linearGradient>
<linearGradient id="paint1_linear_1068_3494" x1="461.935" y1="2521.76" x2="524.071" y2="2620.23" gradientUnits="userSpaceOnUse">
<stop stop-color="white" stop-opacity="0.1"/>
<stop offset="1" stop-color="white" stop-opacity="0.05"/>
</linearGradient>
<linearGradient id="paint2_linear_1068_3494" x1="767.131" y1="2521.76" x2="829.267" y2="2620.23" gradientUnits="userSpaceOnUse">
<stop stop-color="white" stop-opacity="0.1"/>
<stop offset="1" stop-color="white" stop-opacity="0.05"/>
</linearGradient>
<linearGradient id="paint3_linear_1068_3494" x1="1056.92" y1="2521.76" x2="1119.06" y2="2620.23" gradientUnits="userSpaceOnUse">
<stop stop-color="white" stop-opacity="0.1"/>
<stop offset="1" stop-color="white" stop-opacity="0.05"/>
</linearGradient>
<clipPath id="clip0_1068_3494">
<rect width="38.2255" height="38.2255" fill="white" transform="translate(485.029 2544.85)"/>
</clipPath>
</defs>
</svg>
