<svg width="200" height="200" viewBox="0 0 200 200" fill="none" xmlns="http://www.w3.org/2000/svg">
    <path d="M200 0V200H0V0H200Z" fill="#66368C" />
    <path d="M200 0V200H0V0H200Z" fill="#66368C" />
    <path
        d="M99.5 63C78.8 63 62 79.8 62 100.5C62 121.2 78.8 138 99.5 138C120.2 138 137 121.2 137 100.5C137 79.8 120.2 63 99.5 63ZM99.5 74.25C105.725 74.25 110.75 79.275 110.75 85.5C110.75 91.725 105.725 96.75 99.5 96.75C93.275 96.75 88.25 91.725 88.25 85.5C88.25 79.275 93.275 74.25 99.5 74.25ZM99.5 127.5C90.125 127.5 81.8375 122.7 77 115.425C77.1125 107.962 92 103.875 99.5 103.875C106.963 103.875 121.888 107.962 122 115.425C117.163 122.7 108.875 127.5 99.5 127.5Z"
        fill="#2E2E2E" />
</svg>